<svg id="Layer_1" data-name="Layer 1" xmlns="http://www.w3.org/2000/svg" viewBox="0 0 71.31 76.52"><defs><style>.cls-1{fill:#dc0031;}.cls-2{fill:#c2002f;}</style></defs><title>angular js icon</title><path class="cls-1" d="M36.14,80.31c-.12.08-.19,0-.27-.07L23,73.09,6,63.65a.42.42,0,0,1-.24-.37c-.22-2-.45-3.94-.67-5.92S4.63,53.14,4.38,51s-.51-4.49-.77-6.74-.49-4.22-.73-6.34l-.72-6.31-.78-6.77L.66,18.57C.59,18,.53,17.32.44,16.71c0-.24,0-.31.25-.38L9.8,13.11,35.86,3.89c.09,0,.17-.11.28-.05v8.47c-.13,0-.13.08-.16.15-.12.25-.23.51-.35.77L24.74,37.67,14,61.85c-.12.28-.12.28.18.28H22a.34.34,0,0,0,.38-.25q2.1-5.28,4.21-10.55a.31.31,0,0,1,.35-.23h8.94l.28,0Z" transform="translate(-0.43 -3.82)"/><path class="cls-2" d="M36.14,12.31V3.84c.94.33,1.88.64,2.81,1l18.92,6.69,13.66,4.83c.18.06.23.14.2.34l-.93,8.11q-.49,4.26-1,8.53c-.33,2.83-.65,5.67-1,8.5L67.59,52.74q-.5,4.35-1,8.68l-.21,1.87a.44.44,0,0,1-.24.36l-21,11.69L36.4,80.19l-.26.12V51.12l.27,0h8.82a.35.35,0,0,1,.39.27q2.1,5.28,4.21,10.55a.26.26,0,0,0,.28.21h8c.22,0,.21-.07.14-.23-.22-.47-.43-1-.65-1.44L48.41,39.87Q43,27.83,37.66,15.76Z" transform="translate(-0.43 -3.82)"/><path class="cls-1" d="M36.13,44.07l-.32,0h-6c-.31,0-.31,0-.19-.29L34.3,32.68l1.64-3.89.12-.25c.1,0,.1.09.12.17s0,.2,0,.31Q36.14,36.55,36.13,44.07Z" transform="translate(-0.43 -3.82)"/><path class="cls-2" d="M36.13,44.07q0-7.53,0-15c0-.11,0-.22,0-.31l1.51,3.54,4.87,11.5c.14.34.14.34-.24.34H36.43Z" transform="translate(-0.43 -3.82)"/></svg>