<svg id="Layer_1" data-name="Layer 1" xmlns="http://www.w3.org/2000/svg" viewBox="0 0 132 86"><defs><style>.cls-1{fill:none;stroke:#00a717;stroke-miterlimit:10;stroke-width:3px;}.cls-2{fill:#00a717;}</style></defs><title>benifits container icon</title><rect class="cls-1" x="1.5" y="1.5" width="129" height="83" rx="12"/><path class="cls-2" d="M103.74,37.11l-1.13-1.21a3.94,3.94,0,0,0-5.56-.21L77.5,53.82,58,35.69a3.94,3.94,0,0,0-5.56.21l-1.13,1.21a4,4,0,0,0,.21,5.57l22.76,21.1a3.91,3.91,0,0,0,3.27,1,3.91,3.91,0,0,0,3.27-1l22.76-21.1A4,4,0,0,0,103.74,37.11Z" transform="translate(-11.5 -20)"/></svg>