<svg id="Layer_1" data-name="Layer 1" xmlns="http://www.w3.org/2000/svg" viewBox="0 0 300.59 277.46"><defs><style>.cls-1{fill:#03ff66;}</style></defs><title>company icon4</title><path class="cls-1" d="M257.28,200.69c24.24,16,39.55,40,40.17,66.08.05,2.28.06,4.56.05,6.91H282.85c0-1.83,0-3.68,0-5.53-.35-24.69-9.56-48.2-25.55-67.46m-41.64-25.95a13.75,13.75,0,0,0-4.26.68l-.77.25c38,18.38,62.66,53.24,63.22,92.61.05,4.74,0,9.5,0,14.4h32.63c0-5.73.1-10.89,0-16.1-1-43-37.38-80.72-88.38-91.62a13.31,13.31,0,0,0-2.43-.22Z" transform="translate(-5.91 -5.9)"/><path class="cls-1" d="M182.32,21.94c19.36,8.3,32.8,26.18,32.79,46.82,0,20.24-12.89,37.81-31.62,46.34a68.46,68.46,0,0,0-1.17-93.16M157.94,8A70.61,70.61,0,0,0,145.2,9.14c27.27,8.37,47,32.2,47,60.2,0,26.32-18.1,50.23-45.26,59.39a69.63,69.63,0,0,0,10.89.86c36.58,0,66.28-27.23,66.28-60.83S194.57,8.08,158.14,8Z" transform="translate(-5.91 -5.9)"/><path class="cls-1" d="M178.92,174.35a4.3,4.3,0,0,1,1.07.14l.12,0,.12,0a125.65,125.65,0,0,1,26.47,9.34c17.39,8.39,32,20.63,42.15,35.4a88.85,88.85,0,0,1,16,49.19c0,1.93,0,3.88,0,5.88H15a110.38,110.38,0,0,1,.23-14.29c4.26-40.7,37.21-74.26,83.94-85.5l.07,0h.07a4.69,4.69,0,0,1,1.24-.16,4.89,4.89,0,0,1,1.81.34l.11,0,.11,0A110.61,110.61,0,0,0,140,181.51a107.28,107.28,0,0,0,37.24-6.81l.08,0,.08,0a4.36,4.36,0,0,1,1.56-.29m0-9a13.35,13.35,0,0,0-4.83.91A98,98,0,0,1,140,172.51a101.33,101.33,0,0,1-34.31-6.18,14,14,0,0,0-8.55-.51C46.81,177.91,11,214.5,6.31,259.13c-.82,8-.11,16.06-.11,24.23H273.83v-.68c0-4.9.05-9.66,0-14.3-.57-39.4-25.22-74.26-63.22-92.6a134.58,134.58,0,0,0-28.35-10,13.08,13.08,0,0,0-3.34-.43Z" transform="translate(-5.91 -5.9)"/><path class="cls-1" d="M133.7,14.9a64.74,64.74,0,0,1,18.86,2.81C176.87,25.17,193.2,45.9,193.2,69.3c0,22.52-15.74,43-39.12,50.86a68.1,68.1,0,0,1-21.51,3.49l-1.49,0a61,61,0,0,1-40.47-16.72C79.69,96.5,73.69,83.1,73.72,69.18c0-29.9,26.84-54.25,59.85-54.28h.13m0-9h-.15c-38,0-68.83,28.34-68.83,63.28-.08,34,30.51,62.8,66.2,63.45l1.65,0a77,77,0,0,0,24.35-4C184,119.54,202.2,95.63,202.2,69.3c0-28-19.7-51.82-47-60.19A73.54,73.54,0,0,0,133.7,5.9Z" transform="translate(-5.91 -5.9)"/></svg>