<svg id="Layer_1" data-name="Layer 1" xmlns="http://www.w3.org/2000/svg" viewBox="0 0 119.87 106.43"><defs><style>.cls-1{fill:#03ff66;}</style></defs><title>company icon2</title><path class="cls-1" d="M131,62.32c-2.22-17-10.1-29.2-25.8-35.19a64.79,64.79,0,0,0-48.43.3C41.48,33.54,33.86,45.72,31.72,62.32c2.76-1.23,5.11-2.23,7.41-3.31,1.65-.77,2.29-.3,2.29,1.5q0,27.2,0,54.37a10.64,10.64,0,0,1-.22,1.44,12.63,12.63,0,0,1-1.69-.25,12.66,12.66,0,0,1-1.6-.72c-2.58-1.22-5.93-1.82-7.51-3.83s-1.09-5.24-1.48-7.63c-1.7-.78-3.44-1.5-5.09-2.39a2.53,2.53,0,0,1-1-1.54,56.45,56.45,0,0,1,0-24.71c.1-.47.3-1.23.59-1.3,3.33-.81,2.7-3.45,2.77-5.76.63-20.42,9.16-36.86,25.42-49.06,9.22-6.91,20-8.8,31.42-8.64,13.9.2,25.72,4.95,35.5,14.72,7,7,11.48,15.59,15,24.78a48.86,48.86,0,0,1,3.1,19.46c-.07,2,0,3.85,2.54,4.38.38.08.7,1.06.83,1.68a55.85,55.85,0,0,1,0,24.21c-.46,2.08-2.6,3.34-6.54,3.65,0,2,0,4.11,0,6.17,0,.63-.12,1.61-.5,1.81-3.6,1.86-7.28,3.58-11.37,5.56-.12-1.47-.24-2.26-.24-3.06q0-26.31,0-52.61c0-3.05.1-3.11,3-1.86Z" transform="translate(-21.43 -10.48)"/><path class="cls-1" d="M42.31,87.17c0-8.47,0-17,0-25.42,0-2.16.58-2.78,2.8-2.34,6.78,1.35,6.79,1.27,6.79,8.23,0,14.93,0,29.86,0,44.79,0,2.51-.69,3.38-3.25,3.39-6.35,0-6.35.11-6.35-6.25Z" transform="translate(-21.43 -10.48)"/><path class="cls-1" d="M120.41,87.57c0,8.47,0,17,0,25.42,0,2.1-.42,3-2.78,2.9-6.81-.25-6.81-.15-6.81-6.88,0-15.1,0-30.2,0-45.3,0-2.18.57-3.29,2.8-3.49a22.16,22.16,0,0,0,4.19-.81c2.11-.6,2.65.23,2.64,2.23C120.37,70.28,120.41,78.93,120.41,87.57Z" transform="translate(-21.43 -10.48)"/></svg>