<svg id="Layer_1" data-name="Layer 1" xmlns="http://www.w3.org/2000/svg" viewBox="0 0 144.98 108.69"><defs><style>.cls-1{fill:#03ff66;}</style></defs><title>company icon1</title><path class="cls-1" d="M43.53,117.32c-4.67,0-9.35.22-14-.89A32.42,32.42,0,0,1,5.21,81.51c1.48-12.67,8.17-21.46,19.7-26.65a2,2,0,0,0,1.37-2c.39-10,3.11-19.25,9.33-27.23,7.65-9.81,17.89-15.15,30.1-16.58,17-2,31.1,3.54,42.09,16.7a43.13,43.13,0,0,1,8.14,15.37,2.17,2.17,0,0,0,1.91,1.74c10.93,2.24,20.07,7.39,26.3,16.9,14.33,21.93.83,52.6-25,57-6.3,1.06-12.65.42-19,.6-.74,0-.94-.34-.94-1,0-3.32,0-6.64,0-10,0-1,.51-1.12,1.31-1.12q5.82,0,11.62,0a25.35,25.35,0,0,0,25.67-26.41c-.4-10.78-6.33-17.91-16-22.19a36.66,36.66,0,0,0-12.92-2.73c-3.27-.19-2.66,0-3.06-2.7C104.36,40.89,99.69,32.47,91,26.5,75.93,16.14,53.9,20,44,34.65c-4.52,6.69-5.94,14.2-5.6,22.14.08,1.65.19,3.31.4,5,.14,1.1-.15,1.61-1.29,1.87a41.46,41.46,0,0,0-8.62,2.7,20.37,20.37,0,0,0,8.51,38.93c4.78,0,9.56,0,14.34,0,1.37,0,1.7.42,1.66,1.71-.09,3-.07,6,0,9,0,1.07-.34,1.39-1.38,1.37C49.16,117.28,46.34,117.32,43.53,117.32Z" transform="translate(-5 -8.66)"/><path class="cls-1" d="M70.25,92.59v-2c0-11.47,0-22.94,0-34.41,0-1.42.44-1.78,1.79-1.74,2.91.09,5.84.09,8.75,0,1.27,0,1.61.37,1.6,1.61,0,11.53,0,23.05,0,34.57v1.81c.8,0,1-.56,1.38-.93,4.46-4.65,8.92-9.29,13.31-14,.89-1,1.38-.88,2.24,0,2.16,2.18,4.4,4.28,6.65,6.36.69.64.81,1.06.1,1.81Q91.56,100.8,77.17,116c-.7.73-1.11.69-1.78,0Q61,100.78,46.56,85.67c-.75-.78-.51-1.2.13-1.81,2.28-2.13,4.56-4.25,6.77-6.46.8-.8,1.24-.77,2,0,4.4,4.71,8.86,9.35,13.31,14A2.9,2.9,0,0,0,70.25,92.59Z" transform="translate(-5 -8.66)"/></svg>