<svg id="Layer_1" data-name="Layer 1" xmlns="http://www.w3.org/2000/svg" viewBox="0 0 98.26 115.66"><defs><style>.cls-1{fill:#03ff66;}</style></defs><title>company icon3</title><path class="cls-1" d="M29.3,23.52c9,.15,17.76-.76,26.19-3.8a54,54,0,0,0,22-14.54A54.8,54.8,0,0,0,99.65,19.76c8.43,3,17.18,3.9,26.46,3.78.18,5.68.62,11.19.48,16.67a98.44,98.44,0,0,1-10.1,41.68c-8.19,16.53-20.61,29-36.55,38.19A4.2,4.2,0,0,1,75,120C49.4,105.17,34.59,83,29.76,53.9A100.35,100.35,0,0,1,29.3,23.52ZM77.49,12.41c-.5.45-1,.89-1.46,1.3s-1,.91-1.6,1.34C63,23.9,50,28,35.68,28.47c-1.47.05-1.92.45-2,1.92a100,100,0,0,0,3,31.77q9,34.59,39.85,52.79a1.71,1.71,0,0,0,2,0c13.31-7.82,24-18.22,31.51-31.8,9-16.3,12.34-33.84,11.33-52.31-.12-2.24-.13-2.23-2.34-2.32C103.44,27.84,89.46,23,77.49,12.41Z" transform="translate(-28.36 -5.18)"/></svg>