<svg id="Layer_1" data-name="Layer 1" xmlns="http://www.w3.org/2000/svg" viewBox="0 0 79.35 72.41"><defs><style>.cls-1{fill:#2ac764;}</style></defs><title>contact icon2</title><path class="cls-1" d="M40,21c-1.85,5.15-2.9,7.9-3.84,10.68C31.69,44.93,30.6,45.6,16.67,44c-2.5-.3-5.2-.41-5.25-3.64s2.7-4.15,5.12-3.61c9.55,2.1,11.84-4,13.67-11.25A131.25,131.25,0,0,1,35,10.81c1-2.65,1.05-6.6,5-6.73S44.29,8,45.19,10.59c4.62,13.45,8.93,27,13.51,40.46.71,2.1.75,4.78,4,6.45,1.18-3.15,2.37-6.08,3.38-9.07C70.34,36,72.69,34.6,85.93,36.59c2.58.38,5.08.83,4.81,4.07-.21,2.61-2.57,3.64-4.69,3.17-10.59-2.32-12.51,5-14.58,12.53C70.18,61,68.72,65.65,67,70.16c-1,2.62-1.1,6.59-5.31,6.32-3.46-.23-3.75-3.66-4.58-6.09-4.58-13.46-9-27-13.48-40.47C42.86,27.7,41.87,25.56,40,21Z" transform="translate(-11.41 -4.08)"/></svg>