<svg id="Layer_1" data-name="Layer 1" xmlns="http://www.w3.org/2000/svg" viewBox="0 0 71.74 84.7"><defs><style>.cls-1{fill:none;stroke:#03ff66;stroke-miterlimit:10;stroke-width:4px;}</style></defs><title>contact icon1</title><path class="cls-1" d="M15.91,31.18A50.29,50.29,0,0,0,34,28.56a37.3,37.3,0,0,0,15.17-10,37.78,37.78,0,0,0,15.28,10,51.57,51.57,0,0,0,18.24,2.61c.12,3.92.43,7.71.33,11.49a67.92,67.92,0,0,1-7,28.74c-5.65,11.39-14.21,20-25.2,26.33a2.9,2.9,0,0,1-3.41-.06C29.76,87.47,19.55,72.18,16.22,52.12A69.35,69.35,0,0,1,15.91,31.18Zm33.22-7.66c-.34.31-.69.61-1,.89a14,14,0,0,1-1.1.93c-7.88,6.1-16.84,8.92-26.71,9.25-1,0-1.33.31-1.38,1.32A68.75,68.75,0,0,0,21,57.81a57.55,57.55,0,0,0,27.47,36.4,1.17,1.17,0,0,0,1.38,0A57.45,57.45,0,0,0,71.57,72.29C77.78,61.05,80.08,49,79.38,36.22c-.08-1.54-.09-1.54-1.61-1.6C67,34.15,57.38,30.82,49.13,23.52Z" transform="translate(-13.26 -15.57)"/></svg>