<svg id="Layer_1" data-name="Layer 1" xmlns="http://www.w3.org/2000/svg" viewBox="0 0 69.09 68.97"><defs><style>.cls-1{fill:#2ac764;}</style></defs><title>contact icon3</title><path class="cls-1" d="M46.87,49.81c0-3.64-.1-7.3,0-10.94.15-4.26-.24-7.54-4.55-10.49-6.52-4.44-6.5-13-1.07-18.38a12.2,12.2,0,0,1,17.53,0c5.42,5.37,5.35,13.8-1.09,18.41-3.79,2.71-4.7,5.51-4.59,9.68.22,8.34.43,16.7-.05,25-.36,6.05,2.34,5.77,6.4,4.19,7.1-2.77,12.58-7.5,15.72-14.4,1.68-3.69,5.84-9.08-3.48-9.25-2.45,0-3.91-2.74-2-4.49,3.4-3.05,8-1.73,11.94-1.17,3.56.51,2.75,3.9,2.56,6.4-1.4,18.89-21.52,34.05-40.13,30.29-14.76-3-26.2-14.56-28.18-28.83-.36-2.64-1.74-6.41,1.79-7.59a16.22,16.22,0,0,1,12.14.39,3.1,3.1,0,0,1,1,2.66,3,3,0,0,1-3.43,2.53c-6.6-.42-5,3.73-3.66,7A28.35,28.35,0,0,0,40.62,67.33c4.12,1.6,7,1.75,6.34-4.23C46.51,58.71,46.87,54.25,46.87,49.81ZM50,12.62c-3.22.38-5.77,2-6.08,5.62-.33,4,1.86,6.48,5.82,6.73,3.6.22,6-1.93,6.32-5.45C56.49,15.55,54.15,13.35,50,12.62Z" transform="translate(-15.39 -6.3)"/></svg>