<svg id="Layer_1" data-name="Layer 1" xmlns="http://www.w3.org/2000/svg" viewBox="0 0 160.29 177.8"><defs><style>.cls-1{fill:#007610;}</style></defs><title>course-container icon1</title><path class="cls-1" d="M151,7.53c5.7,2.4,7.88,6.81,7.57,12.84-.2,3.86,0,7.73,0,12,4.27,0,8.25,0,12.22,0,6.72,0,10.46,3.74,10.48,10.52.05,14.06,0,28.12.07,42.18,0,3-1.05,4.55-4,4.51s-4.14-1.48-4.12-4.53c.12-13.44,0-26.87.12-40.3,0-3.26-.84-4.54-4.23-4.26s-6.73.06-10.6.06v4.28c0,13.18-.07,26.36.06,39.54,0,3.23-.9,5.21-4.31,5.12-3.18-.08-4-2-4-5,.1-21.59,0-43.19.12-64.78,0-3.18-1-4-4-4q-47.64.16-95.29,0c-3,0-4.1.68-4.09,3.92q.16,54.24,0,108.47c0,3.53,1.28,4.11,4.37,4.08,15.32-.12,30.64-.06,46-.05h3c2.72,0,4.28,1.24,4.25,4.09s-1.48,4-4.27,4c-8.66-.06-17.33,0-26,0H69.7c0,5.14-.16,9.88.16,14.59.06.8,2.23,2,3.44,2.06,8.66.18,17.33.18,26,0,3.24,0,4.74,1.39,4.62,4.45-.09,2.24-1.15,3.69-3.78,3.68-9.67-.07-19.34.05-29-.07-5.4-.07-9.08-3.81-9.27-9.35-.17-5,0-10,0-15.41-4.07,0-7.68-.2-11.27,0-6,.41-9.82-2.14-11.85-7.66V15.06l7.54-7.53Z" transform="translate(-38.71 -7.53)"/><path class="cls-1" d="M187.88,185.33l-13.54-15.9c-5.59,1.76-10.43,3.9-15.49,4.77C139.17,177.6,121,164,118.06,143.39c-2.49-17.38,8.73-36.12,30-39.93,18.37-3.28,37.15,9.92,40.67,28.56a34.15,34.15,0,0,1-3.6,23.62c-1.4,2.52-.86,3.87.91,5.7,4.35,4.5,8.49,9.2,12.95,14.07l-10.36,9.92Zm-34.59-19.45a27,27,0,1,0-26.69-27.26A26.88,26.88,0,0,0,153.29,165.88Z" transform="translate(-38.71 -7.53)"/><path class="cls-1" d="M98.35,66.21q-14.85,0-29.69,0c-3.9,0-6-1.52-5.77-4.26.32-3.43,2.8-4,5.71-3.95q29.88,0,59.76,0c4,0,6,1.44,5.73,4.25-.3,3.48-2.77,4-5.67,4C118.4,66.18,108.37,66.21,98.35,66.21Z" transform="translate(-38.71 -7.53)"/><path class="cls-1" d="M98.37,44.35h-29c-1,0-2.33.32-2.93-.19-1.38-1.17-3.37-2.8-3.3-4.16s2.2-3.36,3.71-3.67c2.89-.59,6-.18,9-.18,17.58,0,35.16-.06,52.74.1,1.7,0,4.08,1,5,2.28,1.92,2.86-.5,5.78-4.66,5.8C118.71,44.4,108.54,44.35,98.37,44.35Z" transform="translate(-38.71 -7.53)"/><path class="cls-1" d="M82.41,88c-4.89,0-9.77,0-14.66,0C65,88,63,86.86,63,83.93s2-4.08,4.8-4.08q14.85,0,29.69,0c2.75,0,4.7,1.15,4.7,4.15s-2,4.08-4.72,4.08h-15Z" transform="translate(-38.71 -7.53)"/></svg>