<svg id="Layer_1" data-name="Layer 1" xmlns="http://www.w3.org/2000/svg" viewBox="0 0 66.05 66.05"><defs><style>.cls-1{fill:#092e20;}</style></defs><title>django icon</title><path class="cls-1" d="M25.52,11.91A6.53,6.53,0,0,0,27,11.45L28.55,11l.25,0c.11,0,.14,0,.18-.11h0a10.48,10.48,0,0,0,1.93-.3,8.84,8.84,0,0,0,2-.28,6.91,6.91,0,0,0,2-.13h2l2,.13h.53l.07,0,.06,0c.36.27.79.09,1.19.16a19.31,19.31,0,0,0,2.51.41c.18.15.42.1.63.16a2.79,2.79,0,0,0,1,.21,7.82,7.82,0,0,0,1.7.54,18.35,18.35,0,0,0,2.28.85l.57.21,1.39.67a17.67,17.67,0,0,0,2,1.05l.67.4a6.52,6.52,0,0,0,1.3.83c.41.31.84.61,1.24.94l2.67,2.17,2,1.93L63.78,25a4.84,4.84,0,0,0,.77,1.22.72.72,0,0,0,.24.5,10.52,10.52,0,0,0,1.11,2A4.42,4.42,0,0,0,66.44,30l.27.67.89,2.26.45,1.71L68.36,36l.07.24.46,2.52.06.91.1.21,0,.71.13,2v2a7.78,7.78,0,0,0-.14,2c-.27.34-.09.74-.15,1.11l-.1.21,0,.65-.9,4-.57,1.75c-.59,1.4-1.11,2.84-1.83,4.18h0c-.07,0-.12,0-.1.14a.27.27,0,0,0,0,.12c-.07,0-.12.06-.11.14a.25.25,0,0,0,0,.12l-.12.15-2,3.28a3.61,3.61,0,0,0-.67.93,2.18,2.18,0,0,0-.62.79,11.42,11.42,0,0,0-1.37,1.58l-.49.49-1.49,1.49a1.79,1.79,0,0,0-.78.66l-1.29,1.07a3.6,3.6,0,0,0-.94.7,3,3,0,0,0-.76.48c-1.1.67-2.14,1.45-3.3,2l-.15.1a.77.77,0,0,0-.51.26L46.47,74.6a10.62,10.62,0,0,0-1.7.45,12.25,12.25,0,0,0-2,.47l-1.18.17c-.09,0-.12,0-.15.1l-.64,0c-.38.22-.83,0-1.21.19l-.77.07-2,.13h-2l-3.94-.43h0c0-.07-.06-.12-.15-.1l-1.84-.3a12.33,12.33,0,0,0-2-.5l-1.79-.57a1.81,1.81,0,0,0-.71-.24,4.52,4.52,0,0,0-1.33-.53l-2-.92a2,2,0,0,0-.74-.41,7.62,7.62,0,0,0-1.38-.8l-2-1.31L15.35,68.8l-.81-.66-1.17-1.06-.94-.92-1.19-1.32-.64-.72a7,7,0,0,0-1.28-1.68.21.21,0,0,0-.08-.11,14.85,14.85,0,0,0-1.28-2,6.17,6.17,0,0,0-.78-1.28,1.19,1.19,0,0,0-.29-.7l-1.17-2.3a2.58,2.58,0,0,0-.38-1,2.28,2.28,0,0,0-.26-.8L5,54l-.11-.2-.43-1.38-.53-2A5.3,5.3,0,0,0,3.63,49l-.46-4.48v-2l.13-2,0-.78c.21-1.74.52-3.45.9-5.16l.54-1.7c.54-1.42,1.06-2.86,1.7-4.24l2.3-3.94.55-.79.74-1c.52-.41.76-1,1.23-1.49l.47-.55,1.51-1.56a.84.84,0,0,0,.48-.41l1.5-1.31c.26-.19.59-.31.76-.62l1.06-.8,1.82-1.13.5-.34,1.75-1L22.73,13c.11,0,.22,0,.26-.14l2.12-.79.26,0C25.46,12,25.49,12,25.52,11.91ZM38.83,39.75V27.21c0-1.14,0-2.29,0-3.43,0-.34,0-.51-.45-.51-2.07,0-4.14,0-6.21,0-.34,0-.48.09-.46.45s0,.88,0,1.32v8.51c0,.4,0,.54-.52.44a14,14,0,0,0-6.31.23,10.37,10.37,0,0,0-7.1,5.55,13.77,13.77,0,0,0-.68,10.28,8.83,8.83,0,0,0,5,5.66,17.55,17.55,0,0,0,7.15,1.44,48.4,48.4,0,0,0,9.06-.9c.46-.08.48-.32.48-.67Q38.82,47.67,38.83,39.75ZM36.06,63.56c2.18,1,4.27,2,6.35,3a.5.5,0,0,0,.49,0A11.29,11.29,0,0,0,49,60.3a23.09,23.09,0,0,0,1.15-7.94c.06-5.83,0-11.66,0-17.49,0-.45-.1-.59-.57-.58q-3,0-5.94,0c-.49,0-.63.09-.63.61,0,5,0,10.07,0,15.11a43.21,43.21,0,0,1-.36,5.44,9,9,0,0,1-5.4,7.45C36.9,63.08,36.53,63.31,36.06,63.56ZM50.17,27.09c0-1.07,0-2.15,0-3.22,0-.37-.09-.49-.47-.49-2.07,0-4.13,0-6.2,0-.4,0-.45.15-.45.49,0,2.11,0,4.23,0,6.34,0,.37.1.45.46.45,2.07,0,4.14,0,6.2,0,.43,0,.46-.16.46-.49C50.16,29.15,50.17,28.12,50.17,27.09Z" transform="translate(-3.17 -10.17)"/><path class="cls-1" d="M31.73,45.59c0,1.61,0,3.21,0,4.82,0,.59-.06.86-.77.9a11.39,11.39,0,0,1-3.59-.18,4.31,4.31,0,0,1-3.22-3,8.17,8.17,0,0,1,.13-5.58c.83-2.14,2.56-2.86,4.7-3.07a7.59,7.59,0,0,1,2.22.23c.46.09.53.31.53.71C31.72,42.16,31.73,43.87,31.73,45.59Z" transform="translate(-3.17 -10.17)"/></svg>