<svg id="Layer_1" data-name="Layer 1" xmlns="http://www.w3.org/2000/svg" viewBox="0 0 59.42 42.58"><defs><style>.cls-1{fill:#fd3336;}.cls-2{fill:#f99c2a;}.cls-3{fill:#027db6;}.cls-4{fill:#fc7a63;}.cls-5{font-size:7.88px;}.cls-5,.cls-6{font-family:MyriadPro-Regular, Myriad Pro;}.cls-6{font-size:6.85px;}</style></defs><title>HTML ICON</title><path class="cls-1" d="M50.17,42.58c-.1,0-.1.12-.1.2-.34,4.54-.8,9.07-1.18,13.6,0,.26-.1.36-.36.42l-12.1,2.74a1.24,1.24,0,0,1-.47,0Q29.9,58.16,23.85,56.8c-.26-.06-.33-.17-.35-.42-.19-2.26-.4-4.52-.61-6.78,0-.1,0-.22-.08-.29,0-.38,0-.77,0-1.15q-.45-5.25-.93-10.5c-.15-1.7-.32-3.41-.48-5.11-.12-1.39-.23-2.77-.35-4.16-.09-1.07-.18-2.14-.29-3.21,0-.27,0-.37.32-.37H51.28c.32,0,.42.06.39.41-.22,2.3-.42,4.6-.62,6.9,0,.14,0,.29,0,.43-.08.84-.17,1.68-.25,2.52-.09,1-.16,2.08-.26,3.12C50.39,39.65,50.2,41.11,50.17,42.58Zm-14,7.28c-1.06-.26-2.11-.53-3.17-.78-.17,0-.19-.14-.2-.28,0-.49-.1-1-.12-1.47,0-.24-.06-.35-.33-.33-1.12,0-2.23.08-3.35.11-.29,0-.35.1-.33.38.13,1.36.27,2.72.36,4.08,0,.4.19.52.54.61,2.21.54,4.4,1.11,6.6,1.67V57.6c0,.26.05.35.34.28,1.57-.37,3.14-.72,4.72-1.08l5.68-1.28c.27-.06.43-.13.45-.47s0-.68.07-1l.3-3.19c.09-1,.16-2.06.25-3.08.13-1.33.26-2.66.38-4,.1-1,.16-2,.26-3.08.14-1.56.32-3.12.46-4.69l.3-3.59c.16-1.85.31-3.69.5-5.53,0-.3,0-.45-.39-.45-4.31,0-8.63,0-12.95,0-.3,0-.38.1-.37.39,0,1.33,0,2.66,0,4l-5.45,0c-1.07,0-2.15,0-3.22,0-.25,0-.31.05-.28.31.09.8.14,1.61.21,2.42L28.38,44c.05.57,0,.57.61.57l7.2,0Z" transform="translate(-7.08 -16.98)"/><path class="cls-2" d="M50.17,42.58c0-1.47.22-2.93.35-4.39.1-1,.17-2.08.26-3.12.08-.84.17-1.68.25-2.52,5,0,10,0,15.06,0,.38,0,.44.09.41.46q-.61,6.66-1.2,13.32c-.11,1.2-.23,2.41-.32,3.61a.38.38,0,0,1-.36.41l-4.76,1.1a18.14,18.14,0,0,1-2.3.4,7.31,7.31,0,0,0-1.71-.45c-1.54-.37-3.1-.71-4.65-1-.25-.05-.33-.16-.35-.41l-.63-7.17C50.21,42.71,50.18,42.64,50.17,42.58Zm8.67-3h-.1c0,1.23,0,2.45,0,3.67,0,.27,0,.4.37.36.52-.07,1.06,0,1.58-.1.27,0,.32.07.3.31-.1.88-.2,1.77-.28,2.65a.32.32,0,0,1-.28.32c-.49.12-1,.27-1.46.38-.24.06-.33.15-.32.4,0,.46,0,.93,0,1.39,0,.29.09.32.34.26l3.53-.8c.23,0,.31-.16.33-.4,0-.69.13-1.37.19-2.06.15-1.6.29-3.2.45-4.8,0-.26,0-.35-.32-.33-.64.06-1.27.08-1.91.14-.26,0-.35,0-.34-.3,0-.89.06-1.78.06-2.66,0-.28.09-.34.34-.33h2.23c.23,0,.34-.06.35-.3,0-.48.07-1,.13-1.43,0-.3,0-.42-.37-.41-1.47,0-2.95,0-4.42,0-.33,0-.4.11-.4.41C58.85,37.18,58.84,38.39,58.84,39.59Zm-6.51,5.89c.07.93.15,1.82.21,2.7,0,.22.19.23.34.26,1.28.29,2.56.57,3.84.87.3.08.38,0,.38-.29,0-1.78,0-3.56,0-5.34,0-2.57,0-5.13,0-7.7,0-.33-.09-.44-.42-.41a8,8,0,0,1-1.2,0c-.39,0-.52.07-.51.49,0,3.31,0,6.61,0,9.92,0,.66,0,.66-.63.45-.13,0-.26-.07-.25-.25S54,46,53.91,46Z" transform="translate(-7.08 -16.98)"/><path class="cls-3" d="M21.36,32.55c.16,1.7.33,3.41.48,5.11q.48,5.25.93,10.5c0,.38,0,.77,0,1.15s.06.74-.18.93a2.39,2.39,0,0,1-.95.26l-2.39.56-2.42.53a6.06,6.06,0,0,1-1.39.25l-5.07-1.17-1.48-.33A.34.34,0,0,1,8.6,50q-.51-5.94-1-11.86c-.15-1.73-.3-3.46-.47-5.19,0-.33.06-.39.37-.39Zm-10.83,3c-.07,0-.09,0-.08.09.05.59.1,1.19.14,1.78,0,.2.1.23.27.23l4.77,0,2.86,0c.23,0,.34,0,.31.3-.1.84-.17,1.69-.23,2.53,0,.24-.09.34-.36.34-.86,0-1.72,0-2.58,0l-2.3,0c-.18,0-.27,0-.26.24,0,.55,0,1.11,0,1.66,0,.17,0,.24.22.24.78,0,1.56,0,2.34,0s1.59,0,2.38,0c.27,0,.34.08.31.34q-.13,1.19-.21,2.37c0,.27-.11.37-.36.42-.71.14-1.42.31-2.12.47L14,46.22c-.73-.16-.74-.16-.83-.91,0-.23-.11-.35-.35-.38-.45,0-.89-.13-1.33-.22-.26-.05-.33,0-.3.28.09.81.17,1.63.24,2.45a.26.26,0,0,0,.24.26l3.76.81a.32.32,0,0,0,.3,0l4.06-.93a.32.32,0,0,0,.27-.33c0-.61.1-1.21.16-1.82l.6-6.62c.09-1,.18-2,.26-2.93,0-.15.1-.36-.2-.36l-5.3,0C13.93,35.56,12.23,35.55,10.53,35.59Z" transform="translate(-7.08 -16.98)"/><path class="cls-4" d="M36.19,30.79c0-1.32,0-2.65,0-4,0-.29.07-.39.37-.39,4.32,0,8.64,0,12.95,0,.37,0,.42.15.39.45-.19,1.84-.34,3.68-.5,5.53L49.1,36c-.14,1.57-.32,3.13-.46,4.69-.1,1-.16,2.06-.26,3.08-.12,1.33-.25,2.66-.38,4-.09,1-.16,2-.25,3.08L47.45,54c0,.35-.05.69-.07,1s-.18.41-.45.47L41.25,56.8c-1.58.36-3.15.71-4.72,1.08-.29.07-.34,0-.34-.28V53.85a.11.11,0,0,1,0-.05,7.87,7.87,0,0,0,1.28-.27c1.86-.42,3.72-.86,5.58-1.27.3-.06.43-.19.44-.48s.07-.85.11-1.27l.45-4.87c.14-1.53.28-3.06.43-4.59,0-.28-.06-.36-.35-.35H40.76l-4.57,0V34.66s0,0,0,0l.07,0h8.48c.28,0,.29-.13.31-.34.08-1.06.18-2.11.29-3.17,0-.28-.06-.33-.32-.33-1.48,0-3,0-4.46,0l-4.37,0S36.19,30.81,36.19,30.79Z" transform="translate(-7.08 -16.98)"/><path class="cls-4" d="M36.27,49.89l-.08,0V44.51l.43,0h3.15c.18,0,.34,0,.31.26-.11,1.31-.22,2.62-.32,3.93a.42.42,0,0,1-.39.44C38.33,49.39,37.3,49.64,36.27,49.89Z" transform="translate(-7.08 -16.98)"/><path class="cls-1" d="M36.19,40.68l-3.82,0c-.23,0-.25-.1-.27-.28-.15-1.71-.31-3.41-.46-5.12-.05-.66-.05-.66.61-.66l3.94,0Z" transform="translate(-7.08 -16.98)"/><text class="cls-5" transform="translate(20.15 6.59)">HTML</text><text class="cls-6" transform="translate(1.65 14.21)">CSS</text><text class="cls-6" transform="translate(48.16 14.21)">JS</text></svg>