<svg id="Layer_1" data-name="Layer 1" xmlns="http://www.w3.org/2000/svg" viewBox="0 0 317.18 300.56"><defs><style>.cls-1{fill:#00880a;}</style></defs><title>job icon2</title><path class="cls-1" d="M60.28,179.21,31,164.05l-10.44,26.2c2-.75,3.65-1.37,5.28-1.95a18.7,18.7,0,0,1,3.14-1,4.27,4.27,0,0,1,4.76,2.9,4.16,4.16,0,0,1-2.16,5.28c-5.86,2.32-11.78,4.51-17.72,6.64a3.93,3.93,0,0,1-4.47-1.37,4.54,4.54,0,0,1-.58-5q4.76-11.86,9.46-23.73l6-15c1.4-3.49,3.85-4.42,7.17-2.7q20.1,10.37,40.18,20.75c1.75.9,3,2.12,3,4.21s-1.23,3.48-3.06,4.4c-3.73,1.87-7.41,3.81-11.15,5.66a1.68,1.68,0,0,0-1,2.27c9.64,43.92,46.36,78.72,90.74,85.94a112.81,112.81,0,0,0,125-74c.36-1,.67-2.1,1-3.14.93-2.6,3.23-3.83,5.64-3.05a4.37,4.37,0,0,1,2.76,5.78,112,112,0,0,1-14.08,29.81c-21.91,32.38-52.25,51.11-91.25,54.52-36,3.14-67.51-8.14-93.84-32.93C66.6,236.78,54.9,215,49.91,189.59c-.68-3.45,0-4.76,3.09-6.38,2.28-1.19,4.57-2.36,6.85-3.54C60,179.62,60,179.5,60.28,179.21Z" transform="translate(-8.28 -12.52)"/><path class="cls-1" d="M273.37,145.44,303,160.52c3.39-8.67,6.73-17.25,10.27-26.31-2.44.93-4.44,1.78-6.49,2.45a8.27,8.27,0,0,1-3.38.54,4.15,4.15,0,0,1-3.51-3.74,4.22,4.22,0,0,1,2.8-4.65c4.62-1.83,9.26-3.57,13.9-5.35l2.4-.91a4.43,4.43,0,0,1,5.11.83c1.54,1.52,1.62,3.32.86,5.27q-4.47,11.37-8.89,22.77-3.15,8-6.29,16.09c-1.37,3.51-3.79,4.45-7.14,2.75Q282.5,160,262.34,149.8c-1.85-.93-3.1-2.24-3.07-4.39s1.27-3.32,3-4.22c3.72-1.89,7.38-3.88,11.1-5.75a1.68,1.68,0,0,0,1-2.28C264.75,90.32,229,56.29,185.8,48.31c-55-10.16-107.7,21.76-126.12,71.41-.7,1.89-1.33,3.82-2,5.73-1,3.08-3.22,4.44-5.79,3.58s-3.6-3.23-2.63-6.31A118.85,118.85,0,0,1,74.45,78.27c20.11-22.34,45-36,74.89-39.61,38.59-4.7,72.28,6.53,100.35,33.5,18.05,17.33,29.29,38.61,34.24,63.17.63,3.15-.09,4.63-2.95,6.12Z" transform="translate(-8.28 -12.52)"/><path class="cls-1" d="M170,313.09c-43.63-.89-78.8-15.53-107.57-45.12a142.82,142.82,0,0,1-26.78-38.89,4.61,4.61,0,0,1,.25-5,4.13,4.13,0,0,1,4.2-1.71,4.51,4.51,0,0,1,3.53,2.88,130.14,130.14,0,0,0,16.53,26.65c23.41,28.88,53.47,46.27,90.36,51,69.65,9,134.72-36.59,150.42-105,1-4.18,1.57-8.43,2.31-12.66.49-2.83,2.48-4.48,5.07-4.14s4.07,2.6,3.68,5.43c-3.79,27.51-14.35,52.13-32.15,73.45-23.62,28.29-53.77,45.39-90.19,51.17C182.38,312.35,174.94,312.63,170,313.09Z" transform="translate(-8.28 -12.52)"/><path class="cls-1" d="M163.71,12.52c39.59.5,72.16,12.7,99.89,37.36a142.88,142.88,0,0,1,34.06,45.24c.16.33.33.66.47,1a4.43,4.43,0,0,1-8,3.73c-2.19-4-4.14-8.23-6.57-12.11C260.79,51.47,228.32,29.37,186,23.05,115.81,12.57,49.29,58.18,33.11,127.16c-.93,3.93-1.54,7.93-2.26,11.91-.49,2.7-2.55,4.4-5,4a4.46,4.46,0,0,1-3.75-5.38Q29.88,86.29,68,50.91c22.3-20.55,48.61-32.75,78.6-36.93C153.11,13.08,159.69,12.85,163.71,12.52Z" transform="translate(-8.28 -12.52)"/><path class="cls-1" d="M115.2,170.65c4.4.2,8.85,0,13.19.66,6.74,1,12.59,3.92,16,10.13a19.7,19.7,0,0,1,2.05,7.31,78,78,0,0,1,.08,9.55c0,3-1.9,5-4.53,4.92s-4.29-2-4.31-4.92-.07-5.77,0-8.64a7.62,7.62,0,0,0-3.32-6.61,16.62,16.62,0,0,0-10-3.32q-9.2-.16-18.38,0a16.69,16.69,0,0,0-9.8,3.22,7.61,7.61,0,0,0-3.42,6.73c.1,2.88,0,5.76,0,8.64s-1.81,4.87-4.36,4.91-4.44-1.91-4.47-4.95,0-6,0-9c0-6.13,2.93-10.62,7.8-14a26,26,0,0,1,14.56-4.44c2.94-.06,5.88,0,8.82,0Z" transform="translate(-8.28 -12.52)"/><path class="cls-1" d="M230.71,171.21c4.28,0,8.6-.37,12.83.09A21.7,21.7,0,0,1,258.17,179a15,15,0,0,1,3.72,9.94c0,3.13,0,6.25,0,9.38s-1.83,5-4.47,4.95-4.36-2-4.38-5.07c0-2.82-.09-5.64,0-8.46a6.8,6.8,0,0,0-3.31-6.55c-2.33-1.36-5-2.91-7.53-3-7.88-.37-15.78-.2-23.67,0a13.42,13.42,0,0,0-5.33,1.84c-3.37,1.72-5.29,4.39-5.06,8.41.16,2.69.05,5.39,0,8.09s-1.77,4.7-4.29,4.75a4.39,4.39,0,0,1-4.52-4.55c-.08-3.49-.19-7,0-10.47.48-7.27,4.86-11.79,11.08-14.8a26.36,26.36,0,0,1,11.39-2.55c2.94,0,5.88,0,8.82,0Z" transform="translate(-8.28 -12.52)"/><path class="cls-1" d="M229.31,167.73a17.19,17.19,0,1,1,17.31-17.07A17.2,17.2,0,0,1,229.31,167.73Zm-.06-8.86a8.33,8.33,0,1,0-8.18-8.45A8.38,8.38,0,0,0,229.25,158.87Z" transform="translate(-8.28 -12.52)"/><path class="cls-1" d="M131.23,150.67a17.17,17.17,0,1,1-17.06-17.32A17.14,17.14,0,0,1,131.23,150.67Zm-8.84-.18a8.33,8.33,0,1,0-16.66.21,8.33,8.33,0,0,0,16.66-.21Z" transform="translate(-8.28 -12.52)"/><path class="cls-1" d="M172.11,114.91A16.74,16.74,0,1,1,155,131.51,16.93,16.93,0,0,1,172.11,114.91Zm0,8.85a7.88,7.88,0,1,0,.06,15.75,7.88,7.88,0,1,0-.06-15.75Z" transform="translate(-8.28 -12.52)"/><path class="cls-1" d="M173.12,151.37c4.29,0,8.63-.44,12.84.1,6.85.89,12.64,4.06,16.16,10.27a20.23,20.23,0,0,1,2,6.77,4.27,4.27,0,0,1-3.86,4.92,4.32,4.32,0,0,1-4.87-4.14,8.39,8.39,0,0,0-3.75-6.24,16.27,16.27,0,0,0-9.8-3.18c-5.7-.06-11.41-.07-17.11,0A17.51,17.51,0,0,0,154.55,163a7.31,7.31,0,0,0-3.48,6.13,4.28,4.28,0,0,1-4.49,4.34,4.32,4.32,0,0,1-4.3-4.38c-.15-5.55,2.44-9.77,6.72-13a26,26,0,0,1,15.66-5c2.82-.06,5.64,0,8.46,0Z" transform="translate(-8.28 -12.52)"/></svg>