<svg id="Layer_1" data-name="Layer 1" xmlns="http://www.w3.org/2000/svg" viewBox="0 0 301.2 302.48"><defs><style>.cls-1{fill:#00880a;}</style></defs><title>job icon1</title><path class="cls-1" d="M234.18,157.81V30.92H90.8V77.59c0,7.91-4.59,12.52-12.55,12.54-14.5,0-29,0-43.5,0H31.54V301.84H234.23v-2.93c0-25.55,0-51.1,0-76.65,0-2.36.75-3.72,3-4.5a18.63,18.63,0,0,0,11.52,13,2.54,2.54,0,0,1,1,2q.08,36.9,0,73.8a11.43,11.43,0,0,1-10.87,11.11c-.6,0-1.21,0-1.81,0H28.89c-8.52,0-13.06-4.57-13.06-13.13q0-112.24,0-224.5A14.13,14.13,0,0,1,20,69.29Q45.24,44.2,70.37,19a12.47,12.47,0,0,1,9.26-3.82q79.11,0,158.21,0c7,0,11.94,4.91,11.94,11.87q0,58.9,0,117.82a3.42,3.42,0,0,1-.8,2.48C244.27,150.81,239.45,154.11,234.18,157.81Z" transform="translate(-15.8 -15.16)"/><path class="cls-1" d="M183.92,240l-15.19-21.8,101.46-70.83c5.1,7.3,10.06,14.42,15.21,21.78Z" transform="translate(-15.8 -15.16)"/><path class="cls-1" d="M152.07,232.69c-1.75-2.36-.59-3.65,1.32-4.88,2.82-1.82,5.55-3.79,8.28-5.76,1.51-1.09,2.71-.85,3.73.62q6.6,9.44,13.19,18.88c1.08,1.54.77,2.69-.72,3.7-2.77,1.91-5.58,3.77-8.26,5.79-1.81,1.37-3.41,2.06-5.05-.39-4.67,6.27-9.27,12.3-13.67,18.48a8.08,8.08,0,0,1-5.42,3.44q-18.61,3.75-37.19,7.75c-1,.22-1.89,1.19-2.87,1.71s-2.08.94-3.12,1.4l-.39-.8q7.44-5.24,14.88-10.46,5.84-4.08,11.69-8.12c1.71-1.18,3.15-2.6,5.74-1.95,2,.51,3.4-1.25,3.58-3.25a3.41,3.41,0,0,0-3-3.89,3.61,3.61,0,0,0-4.26,2.82,5.1,5.1,0,0,1-1.47,2.69c-9.21,6.54-18.5,13-27.77,19.45a6.74,6.74,0,0,1-.89.45l-.55-.51c.76-.83,1.47-1.71,2.29-2.46s2.16-1.3,2.76-2.25c6.86-10.87,13.57-21.83,20.47-32.67a7.73,7.73,0,0,1,3.88-3C136.7,237.13,144.24,235,152.07,232.69Z" transform="translate(-15.8 -15.16)"/><path class="cls-1" d="M141.07,84.21q0-15.39,0-30.79c0-3.54.91-4.48,4.39-4.49H199.8c3.36,0,4.37,1,4.38,4.27q0,31.18,0,62.37c0,3.06-1.13,4.14-4.26,4.14q-27.18,0-54.35,0c-3.48,0-4.48-1-4.49-4.43Q141.06,99.75,141.07,84.21Zm40,4.62c6.6,4.92,16,5.42,19.64,14.18V52.41H144.42v51.27c1.62-3.78,3.89-7,7.56-8.85,4.19-2.08,8.57-3.79,12.83-5.64,1.14,9,1.07,18.54,7.85,26.37C179.46,107.69,179.69,98.2,181,88.83Z" transform="translate(-15.8 -15.16)"/><path class="cls-1" d="M133,161.31H67.54c-3.73,0-5.67-1.52-6-4.62-.46-3.92,1.75-6.35,5.88-6.35h131c3.07,0,4.86,1.19,5.58,3.61s0,5.26-2,6.42a8.34,8.34,0,0,1-3.91.87q-32.48.07-65,0Z" transform="translate(-15.8 -15.16)"/><path class="cls-1" d="M192.78,186.7c-5.37,3.75-10.08,7.08-14.85,10.32a4.64,4.64,0,0,1-2.45.49q-53.83,0-107.67,0c-3.77,0-6.26-2.14-6.34-5.35s2.49-5.6,6.34-5.6H190C190.64,186.57,191.3,186.63,192.78,186.7Z" transform="translate(-15.8 -15.16)"/><path class="cls-1" d="M298.56,167.13c3.05-2.48,5.91-4.82,9-7.36,2.95,4.28,5.95,8.36,8.64,12.64,1.64,2.61.66,5.2-2.3,7.27Q299.18,190,284.42,200.25,271.69,209.13,259,218c-2.12,1.49-4.29,2.23-6.78,1.05-4.15-2-4.5-7.33-.54-10.16,6.73-4.82,13.55-9.52,20.33-14.26l26.09-18.22c4.13-2.88,4.26-3.62,1.37-7.88C299.16,168.15,298.91,167.7,298.56,167.13Z" transform="translate(-15.8 -15.16)"/><path class="cls-1" d="M290.18,166.27,275,144.48l10.2-7.15c2.33-1.63,4.63-3.31,7-4.88a10,10,0,0,1,14.32,2.67c1.25,1.75,2.5,3.51,3.66,5.32a9.69,9.69,0,0,1-2.28,13.38C302.17,158,296.32,162,290.18,166.27Z" transform="translate(-15.8 -15.16)"/><path class="cls-1" d="M140.8,223.45c-5.16,1.54-10.41,2.84-15.45,4.7-2.81,1-5.28,3-7.93,4.54a5.57,5.57,0,0,1-2.43,1q-23.8.09-47.62,0c-3.48,0-5.92-2.37-5.89-5.53a5.4,5.4,0,0,1,5.73-5.38q36.38,0,72.73,0a5,5,0,0,1,.76.12Z" transform="translate(-15.8 -15.16)"/><path class="cls-1" d="M100.76,259c-2.46,3.87-3.93,7.84-7.74,10a5.27,5.27,0,0,1-2.26.91c-7.85.07-15.7.09-23.55,0a5.59,5.59,0,0,1-5.74-5.47A5.29,5.29,0,0,1,66.61,259C77.82,258.93,89,259,100.76,259Z" transform="translate(-15.8 -15.16)"/><path class="cls-1" d="M184.34,66.28c.35.9.88,2.49,1.58,4s-.06,5.11-1.21,6.31a18.49,18.49,0,0,0-3.23,4.07c-1.95,3.72-4.75,5.75-9,5.66s-6.79-2.38-8.6-6a14.66,14.66,0,0,0-2.65-3.62,6.2,6.2,0,0,1-.81-7.09,5.31,5.31,0,0,0,.56-3.1c-.52-4.45-.23-8.62,4.36-10.88a14,14,0,0,1,14.44.59C183.36,58.49,185.68,60.9,184.34,66.28Zm-.51,3.85-.69-.26c.11-2.71-3-5.92-4.91-4.79-4.25,2.57-8.9,3-13.64,3.21-1.55.06-2.11.61-2,2.16a20.39,20.39,0,0,0,3.74,11.08c3.5,4.91,10.36,4.78,13.29-.51C181.46,77.65,182.45,73.78,183.83,70.13Z" transform="translate(-15.8 -15.16)"/><path class="cls-1" d="M172.84,87.74c1.09,1.31,2.36,2.19,2.25,2.87a3.75,3.75,0,0,1-2,2.64c-2,.57-2.33-1.44-2.45-2.72C170.57,89.85,171.76,89,172.84,87.74Z" transform="translate(-15.8 -15.16)"/></svg>