<svg id="Layer_1" data-name="Layer 1" xmlns="http://www.w3.org/2000/svg" viewBox="0 0 207.48 305.95"><defs><style>.cls-1{fill:#2ea539;}</style></defs><title>job icon4</title><path class="cls-1" d="M179,305.45q20.64,0,41.28,0c5.8,0,4-4.51,4-7.43.13-24.61.07-49.23.08-73.84a52.64,52.64,0,0,1,.22-6.77,4.18,4.18,0,0,1,4.65-4c2.73.06,4.14,1.72,4.42,4.22a61.22,61.22,0,0,1,.16,6.78c0,24.05.25,48.1-.16,72.15-.11,6.71,1.07,9.31,8.57,9.08,18.12-.55,18.13-.13,18.13-18.6,0-7.92.08-15.84,0-23.76-.05-3.6.95-6.48,5-6.27,3.46.17,4.35,3,4.34,6.14-.05,13,.14,26-.09,39-.14,7.7-4.43,12.32-12.19,12.35-39,.17-78.09.1-117.13.09-2.9,0-6.06-.08-6.29-4-.25-4.32,3.06-5,6.3-5.1,4.23-.16,8.46,0,13.41,0-1.83-5.87-6.16-9.17-9.63-12.91-3.6-3.9-4.74-7.71-3.73-13,4.2-22.2,7.95-44.49,11.88-66.74,1.74-9.82,1.22-10.46-9-11-3.83-.18-6.14-2.41-7.73-5.7-3.3-6.87-6.95-13.6-9.94-20.6-2-4.76-4.56-5.52-9.18-3.59-7.81,3.25-15.92,5.78-23.78,8.92-13.2,5.26-20.36,15.43-20.58,29.36-.46,29.42-.07,58.85-.2,88.28,0,4.94,1.46,6.88,6.77,7,19.83.52,19.83.71,19.83-18.81,0-21.5,0-43,0-64.51,0-3.73-1.18-8.93,5-8.7,5.39.21,4.4,5,4.4,8.5.06,24.9.17,49.8-.07,74.69-.06,5.94.46,10,8,8.85,2.85-.42,5.93.67,6,4.41.12,4.48-3.36,4.62-6.55,4.63-13.3.05-26.6.21-39.89-.08-8.33-.19-12.6-4.44-12.65-12.75-.17-30.83-.69-61.69.18-92.51.49-17.14,9.81-29.91,25.92-36.58,14.61-6.05,29.52-11.36,44.3-17,8.67-3.3,10.57-10.9,4-17.33-6-5.91-10.64-12.54-12.29-20.86-.8-4.06-3.41-5-6.84-6.29-9.65-3.49-15.08-14.08-11.06-23.35,3-6.89,2.89-13.66,2.91-20.66.09-30.51,19.93-53.57,49.91-58C189,5,219.94,31,220.65,60.69c.23,9.48-.58,18.77,4.1,28,4.26,8.42-1.5,19.12-11,22.48-4.35,1.52-6.2,3.63-7.33,7.93a39.69,39.69,0,0,1-10.73,18c-7.41,7.43-5.42,15.21,4.49,19,14.25,5.42,28.57,10.69,42.72,16.38,17.3,6.94,25.92,20.22,26.7,38.61.35,8.47.09,17,0,25.46,0,3.63.61,8.16-4.88,8-5.76-.13-4.21-5-4.31-8.38-.21-7.92,0-15.84-.08-23.76-.12-15.59-7.48-26.41-21.86-32-7.36-2.85-15-5.14-22.21-8.25-5-2.14-7.59-1.44-9.71,3.8-2.75,6.79-6.42,13.21-9.58,19.84-1.88,3.94-4.8,7.16-9.16,5.83-10-3-9,3.39-8.08,9,2.36,15.06,5.15,30,7.77,45.07.34,2,.51,3.94,1,5.84,4.19,15.86,7.12,31.4-11.76,41.9ZM198.83,94.74V79.48a16,16,0,0,0,0-1.7c-.79-7.79-9.71-15.2-15-12.21a94.59,94.59,0,0,1-46.91,12.51c-3.75,0-4.91,1.23-4.81,4.86.21,7.35,0,14.7.06,22,.06,20.76,12.61,34.08,32.53,34.54s33.16-12.41,34.11-32.91C199,102.67,198.81,98.7,198.83,94.74ZM210.7,74.5c.62-7,1.76-13.78,0-20.62-6-23.37-27.21-38.15-50.9-35.43-23.13,2.66-41,23.28-41,47.53,0,2.82-1.93,6.74,1.39,8.41,2.91,1.46,3.75-2.63,5.68-4a8.5,8.5,0,0,1,5.66-1.29c18.68.86,35.8-4,51.51-14,4.95-3.15,8.78-2,12.6,2.29C200.67,62.89,205.61,68.47,210.7,74.5ZM149.12,283.13c.1,4.1,4,6.51,6.81,9.46,10.06,10.5,10.16,10.48,20.21.08,3.63-3.75,7.76-6.89,6.47-13.6-4.12-21.6-7.62-43.33-11.36-65-.53-3.07-.6-6.24-5.15-6.26s-4.69,3.07-5.23,6.18c-2,11.68-4.16,23.34-6.15,35C152.83,260.12,151.07,271.25,149.12,283.13Zm5.3-135.75c-2.14-.32-4.14-.93-4.75,1.25a7.88,7.88,0,0,0,1.16,7.25c4.19,5.31,8.43,10.57,12.64,15.87,1.35,1.7,2.69,3.11,4.61.65,4.68-6,9.77-11.71,13.83-18.09,1.53-2.4,3.15-8.11-3.69-6.9C170.05,148.86,162,149.32,154.42,147.38Zm31.73,43.69c3,.52,3.28-1.57,4-2.91,2.74-5.23,5.5-10.47,8-15.84,1-2.25,4.13-5.28,0-7.1-3.73-1.64-7.83-5.72-12.08-.63-2.35,2.81-4.84,5.53-6.94,8.52-1.95,2.77-6.92,5.34-4.31,8.89C177.65,185.91,182.56,188.33,186.15,191.07Zm-44.3-28.81c-7.38-.23-10.66,4.46-7.55,10.87,1.47,3,3.06,6,4.58,9,5.32,10.52,5.14,10.29,14.84,3.35,4.45-3.18,5.55-5.61,1.43-9.8-3.15-3.2-5.72-7-8.55-10.47C145.36,163.71,144.19,162.06,141.85,162.26ZM123.36,93.94c-1.44-2.91,2-8.11-2.28-8.6-4.4-.52-6.07,4.19-6.12,8.51s1.57,9,6,8.56S121.84,96.75,123.36,93.94Zm84.07-.72c2.36,2.58-2,8.24,3.09,8.73,3.94.38,6.22-4.29,6.21-8.6,0-3.92-1.65-8.09-5.67-8.17C205.48,85.08,209.4,90.37,207.43,93.22ZM165.71,198.75c3.43.08,7.82.32,7.88-4,0-3.38-4.21-5.8-7.2-5.93-3.43-.14-7.66,2.3-7.81,6.09S162.5,198.88,165.71,198.75Z" transform="translate(-62.26 -8.81)"/></svg>