<svg id="Layer_1" data-name="Layer 1" xmlns="http://www.w3.org/2000/svg" viewBox="0 0 301.89 301.81"><defs><style>.cls-1{fill:#2ea538;}</style></defs><title>job icon3</title><path class="cls-1" d="M79.06,279.71c8.87,1.43,17.79.14,26.68.54,3.52.16,5-1.43,4.87-5-.18-7,.27-14-.15-20.92-.4-6.63,2.23-8.76,8.74-8.7,26.23.26,52.47-.17,78.7.29,7,.13,8.49-2.12,8.16-8.48-.49-9.46,0-19-.18-28.46-.13-5.48,1.69-8.28,7.63-8.26q48.13.2,96.28,0c5.47,0,7.21,2.3,7.19,7.61q-.23,54,0,108c0,6-2.3,7.68-7.92,7.67q-142.74-.15-285.49,0c-6,0-8.68-1.62-8.39-8.07.42-9.47.29-19,0-28.46-.14-5.09,2-7,6.88-7.1,6.66-.09,13.31-.45,20-.7A191.18,191.18,0,0,0,79.06,279.71Zm228.31-17.13c0-15.63-.15-31.26.09-46.89.07-4.77-1.5-6.17-6.25-6.13q-39.78.3-79.55,0c-4.67,0-6.35,1.21-6.33,6q.24,46.47,0,92.94c0,4.72,1.47,6.16,6.24,6.12,26.51-.22,53-.27,79.54,0,5.57.06,6.4-2.12,6.33-6.88C307.22,292.73,307.37,277.65,307.37,262.58Zm-144.62,52c12.26,0,24.53-.27,36.77.13,5.28.16,6.63-1.55,6.53-6.62-.29-15.88-.21-31.77,0-47.65.05-4.12-.87-5.92-5.52-5.88q-37.2.31-74.39,0c-4.69,0-6.41,1.4-6.35,6.15.2,15.88.24,31.77,0,47.65-.09,5.46,2.32,6.41,7.08,6.3C138.78,314.36,150.77,314.54,162.75,314.54ZM67.83,289.91H41.89c-17.44,0-17.22,0-17.18,17.7,0,5.42,1.4,7.16,7,7.06,20.35-.34,40.72-.13,61.09-.13,18,0,17.79,0,17.88-17.66,0-5.36-1.2-7.31-6.89-7.1C91.83,290.22,79.83,289.91,67.83,289.91Z" transform="translate(-15.11 -22.2)"/><path class="cls-1" d="M42.08,277.74c-7.5-3.41-10.42-9.11-9.93-17.4.55-9.18-.11-18.41.23-27.61.17-4.86-.84-7.39-6.34-6.63-8.33,1.16-11.14-2.54-10.91-11,.54-20.34.1-40.72.2-61.08.09-18.2,11-29.24,29-29.43,11.16-.12,22.32-.18,33.47,0,16.45.3,28,11.33,28.34,27.87.43,21.74,0,43.51.23,65.26.09,7.06-3.68,9-9.42,8.28-7.24-.87-9.08,2.15-8.68,8.92.54,8.89-.16,17.85.22,26.76.33,7.61-2.5,12.88-9.41,16Zm-.24-54.69c0,12.27.13,24.54-.06,36.81-.08,5.07.35,8.27,7,8.31,6.37,0,7.33-2.51,7.18-7.9-.32-11.15-.1-22.31-.1-33.47,0-3.73-.26-7.7,5.26-7.43,5,.25,4.48,4.09,4.49,7.39.05,11.72.22,23.44-.07,35.14-.11,4.6,1.13,6,6,6.24,6.4.28,8-1.91,7.91-8.07-.33-24.26-.18-48.53-.09-72.8,0-3.44-.75-8.17,4.48-8.35,5.52-.18,4.51,4.6,4.56,8.05.12,8.08,0,16.17.06,24.26,0,2.9.07,5.78,4.17,5.76s4.33-2.69,4.33-5.7c0-9.2.06-18.41,0-27.61-.07-10.87.46-21.8-.53-32.59-1.12-12.16-7.45-17.2-19.3-17.25q-16.32-.06-32.63,0C32,133.88,25.25,140,25,152.66c-.39,19.52-.15,39.05-.14,58.57,0,2.75-.35,5.92,4,5.76,4.49-.18,3.39-3.63,3.42-6.18.11-8.08,0-16.17,0-24.26,0-3.73-.17-7.85,5.12-7.72,4.83.12,4.44,4,4.43,7.4Q41.82,204.64,41.84,223.05Z" transform="translate(-15.11 -22.2)"/><path class="cls-1" d="M208.64,144.38c0,10.6-.23,21.2.09,31.78.17,6-1.69,9.21-8.06,8.08-8.2-1.45-9.74,2.55-9.32,9.78.56,9.44.31,18.95.08,28.42-.22,9.28-4.77,13.57-14.11,13.65s-18.4.07-27.6,0c-10-.08-14.13-4-14.4-14.18-.28-10-.35-20.08,0-30.11.22-5.7-1.44-8.56-7.42-7.52-8.55,1.48-10.36-2.88-10.18-10.42.49-21.16-.26-42.39.94-63.51,1-18,11-26.16,29.06-26.21,10.87,0,21.74-.09,32.62,0,16.69.16,27.51,10.8,28.24,27.6,0,.55,0,1.11,0,1.67Zm-26.93,39.23c0-12.55,0-25.11,0-37.66,0-3.67,0-8.07,5.07-8s4.62,4.65,4.65,8.22q.11,12.56,0,25.11c0,3,.79,4.72,4.18,4.75,3.6,0,4-2.06,4-4.87-.06-20.37.27-40.74-.22-61.09-.24-10.06-8-16.71-18.21-16.84-11.44-.14-22.88-.07-34.32,0-12.24.06-19.23,6.65-19.38,19-.23,19.24-.08,38.49,0,57.74,0,2.68-.67,5.92,3.7,6,4.87.14,4.21-3.4,4.23-6.4.06-8.65.05-17.29.07-25.94,0-3.19,1.29-5.69,4.68-5.73s4.65,2.49,4.65,5.67c0,2.23,0,4.47,0,6.7,0,23.43.13,46.87-.08,70.3,0,5.92,2.8,6.65,7.78,6.72s6.84-1.2,6.66-6.53c-.4-12-.11-24-.13-36,0-3.31.53-6.6,4.55-6.67,4.32-.09,4.32,3.51,4.32,6.65,0,12,.29,24-.11,36-.17,5.29,1.57,6.61,6.63,6.57s7.61-1,7.42-6.88C181.43,208.17,181.7,195.88,181.71,183.61Z" transform="translate(-15.11 -22.2)"/><path class="cls-1" d="M240.09,124.62c0-8.09-.26-16.18.1-24.25.23-5.26-1.81-7-6.82-6.49a63.53,63.53,0,0,1-10.86-.06c-5.27-.43-7.22-3.27-4.12-7.88q20.27-30.15,40.84-60.12c2.92-4.26,6.15-4.49,9.16,0q20,29.82,40,59.69c3.41,5.13,1.23,7.71-4.36,8.33-.27,0-.55,0-.83.06-5.18.63-12.09-2.35-15.19,1.36-3.52,4.2-1,11.2-1.13,17-.2,12.26-.42,24.54.07,36.78.29,7.17-2.48,9.24-9.24,8.94-9.74-.44-19.51-.36-29.26,0-6.1.21-8.64-2-8.44-8.22C240.3,141.35,240.09,133,240.09,124.62ZM230.28,85c4.73,0,7.26.26,9.72-.05,7.5-1,10.52,1.66,10.05,9.68-.66,11.38-.16,22.83-.16,34.25,0,20.33,0,20.11,20.52,20,5.7-.05,7.1-2.07,7-7.31-.26-13.65-.08-27.3-.08-40.95,0-14.27,0-14.41,14-15.5,4.14-.32,5.08-1.49,2.76-4.94-3.27-4.85-6.52-9.71-9.82-14.54-6.61-9.7-13.26-19.38-20.49-29.93Z" transform="translate(-15.11 -22.2)"/><path class="cls-1" d="M163.05,78.33a28,28,0,0,1-27.73-28.4c.16-14.53,13.39-27.61,28.05-27.73s28.07,13.38,28.11,28.55C191.52,66.2,178.9,78.43,163.05,78.33ZM181.7,50.2c-.13-10.61-8.07-18.54-18.46-18.43a18.26,18.26,0,0,0-18.13,18.87c.27,10.67,8,18.21,18.67,18.13S181.83,61.16,181.7,50.2Z" transform="translate(-15.11 -22.2)"/><path class="cls-1" d="M60.77,119c-15.92.08-28.5-12.06-28.48-27.5s12.36-27.74,28.29-27.9a27.36,27.36,0,0,1,27.8,27.29C88.65,107,76.9,118.91,60.77,119ZM79.23,91.3a18.61,18.61,0,0,0-18.4-18.71,18.75,18.75,0,1,0,.09,37.49A18.52,18.52,0,0,0,79.23,91.3Z" transform="translate(-15.11 -22.2)"/><path class="cls-1" d="M263.44,175.08c-5.83,0-11.67,0-17.5,0-2.73,0-5.18-.86-5.43-3.94-.29-3.55,2.22-5,5.3-5q17.91-.16,35.82,0c2.65,0,5.05,1.11,5,4.36-.05,3.66-2.68,4.54-5.7,4.57C275.11,175.14,269.27,175.09,263.44,175.08Z" transform="translate(-15.11 -22.2)"/><path class="cls-1" d="M263.64,192.42c-5.57,0-11.14.12-16.7-.06-3.2-.11-6.41-1-6.4-5s3-4.94,6.36-4.95c11.14,0,22.28-.05,33.42,0,3.25,0,6.32.8,6.34,5s-3.13,4.92-6.33,5C274.77,192.54,269.2,192.43,263.64,192.42Z" transform="translate(-15.11 -22.2)"/></svg>