<svg id="Layer_1" data-name="Layer 1" xmlns="http://www.w3.org/2000/svg" viewBox="0 0 154.21 175.25"><defs><style>.cls-1{fill:#007610;}</style></defs><title>job-portal icon 2</title><path class="cls-1" d="M50.65,63.27V173.49H165.41V94.56a4.51,4.51,0,0,1,1-3.29A3.73,3.73,0,0,1,170.23,90a3.66,3.66,0,0,1,2.86,2.86,7.91,7.91,0,0,1,.15,1.75q0,41,0,81.94c0,3.38-1.42,4.79-4.83,4.79H47.59c-3.41,0-4.78-1.39-4.78-4.8q0-58.21,0-116.43A5.41,5.41,0,0,1,44.48,56Q68.54,31.8,92.56,7.5a4.45,4.45,0,0,1,3.33-1.38q36.58,0,73.16,0a3.88,3.88,0,0,1,4.19,4.18q0,14.06,0,28.12a3.92,3.92,0,1,1-7.82-.09q0-11.48,0-23V14H99.47v1.29q0,21.65,0,43.28c0,3.32-1.4,4.71-4.76,4.71H50.65Zm40.92-7.88V19.6L56.14,55.39Z" transform="translate(-42.79 -6.12)"/><path class="cls-1" d="M100.8,119.08c.38-.34.68-.59,1-.86l83.85-79.28c2.36-2.23,5-2.76,7.63-1.54a6.48,6.48,0,0,1,1.67,10.65c-4.76,4.56-9.57,9.06-14.36,13.59l-45.71,43.22Q119.93,119,105,133.07a6.48,6.48,0,0,1-9.72-.43q-13-15.13-26.09-30.28c-3.34-3.88-1.76-9.57,3-10.77A6.3,6.3,0,0,1,79,93.74L95.8,113.29Z" transform="translate(-42.79 -6.12)"/></svg>