<svg id="Layer_1" data-name="Layer 1" xmlns="http://www.w3.org/2000/svg" viewBox="0 0 237.76 167.63"><defs><style>.cls-1{fill:none;stroke:#006b05;stroke-width:5.79px;}.cls-2{fill:#006b05;}</style></defs><title>lms container icon 1</title><path class="cls-1" d="M241.3,126.92V150c-.17.8-.38,1.58-.5,2.38a44.87,44.87,0,0,1-8.42,20.72c-10.06,13.33-23.77,19.32-40.19,19.35q-66.42.12-132.85,0a51,51,0,0,1-23.2-5.07c-14-7-23.37-18-25.69-33.64a109.94,109.94,0,0,1-.66-25.7c1.86-20.62,12.73-35.13,31.85-43.28a44.7,44.7,0,0,1,17.51-3.22c.41-1.3.77-2.52,1.17-3.73a66.93,66.93,0,0,1,24.79-34.2c13.7-9.86,29.07-13.95,45.84-12.77A66.9,66.9,0,0,1,173.2,49.26a65.33,65.33,0,0,1,18.38,30.12c.51,1.77,1.34,2.25,3.13,2.34A45.37,45.37,0,0,1,203.86,83c17,4.47,28.32,15.39,34.37,31.75C239.68,118.62,240.3,122.84,241.3,126.92Zm-68.73-24.51c0-5.68-3.19-10-8-11.26-4.56-1.24-8.25.31-11.47,3.54q-18.47,18.53-37,37c-2.44,2.42-3.58,2.41-6,0-4.49-4.47-8.89-9-13.5-13.38a10.9,10.9,0,0,0-15.36,15.46Q93.18,146,105.41,157.9a10.61,10.61,0,0,0,15.45,0q24.35-24.14,48.51-48.48A10.07,10.07,0,0,0,172.57,102.41Z" transform="translate(-6.43 -27.78)"/><path class="cls-2" d="M172.57,102.41a10.07,10.07,0,0,1-3.2,7q-24.23,24.27-48.51,48.48a10.61,10.61,0,0,1-15.45,0Q93.19,146,81.25,133.72a10.9,10.9,0,0,1,15.36-15.46c4.61,4.34,9,8.91,13.5,13.38,2.46,2.45,3.6,2.46,6,0q18.49-18.5,37-37c3.22-3.23,6.91-4.78,11.47-3.54C169.38,92.46,172.59,96.73,172.57,102.41Z" transform="translate(-6.43 -27.78)"/></svg>