<svg id="Layer_1" data-name="Layer 1" xmlns="http://www.w3.org/2000/svg" viewBox="0 0 239.79 187.49"><defs><style>.cls-1{fill:#00800d;}</style></defs><title>lms container icon 4</title><path class="cls-1" d="M69.09,49.38c.53,0,.92,0,1.3,0,42.61,0,85.21.08,127.82,0A22.79,22.79,0,0,1,221.14,72.3c0,1.39,0,2.78,0,4.34.7,0,1.25,0,1.81,0,4,.09,8-.12,11.89.36a14.33,14.33,0,0,1,12.29,13.9c.13,3.39-.84,6.55-1.7,9.75q-5.66,21.09-11.33,42.18c-2.94,11-5.85,22-8.8,33-1.43,5.35-2.69,10.76-4.46,16-2.94,8.72-12.68,16.3-23.06,16.25-25.08-.14-50.16-.05-75.24-.05l-69.47,0q-15.14,0-30.28,0C12.84,208,6,199.86,7.58,190a21.44,21.44,0,0,0-.14-3.38q0-18.67,0-37.36V80.87q0-20.45,0-40.88a19.07,19.07,0,0,1,19-19.36q12.2-.15,24.38,0c9.89.15,18.27,8.74,18.35,18.62C69.12,42.59,69.09,45.91,69.09,49.38Zm41.86,151v0h86.66c7.08,0,12-3.53,15.32-9.46a31.61,31.61,0,0,0,2.38-7.17q7-26,13.93-52.06l9.93-37c1.65-6.16-1.71-10.57-8.06-10.56H127.67q-35.26,0-70.53,0a17.88,17.88,0,0,0-16.92,13q-2.79,10.55-5.62,21.09-7.09,26.47-14.2,52.93c-1.76,6.57-3.6,13.12-5.17,19.74-1.29,5.48,2.12,9.5,7.76,9.5l32,0ZM15,161.29l.18,0q.92-3.45,1.84-6.9c5-18.87,10.15-37.73,15.12-56.61,1.42-5.39,3.48-10.31,7.65-14.18,4.58-4.25,9.84-7,16.19-7,21.33,0,42.65,0,64,0h92.15c.46,0,.91,0,1.42-.08,0-1.73.06-3.3,0-4.87A15,15,0,0,0,198.22,57l-18.87,0-54.14,0H61.5v-1.8c0-5.15,0-10.31,0-15.47A11.57,11.57,0,0,0,50,28.19q-11.79-.06-23.59,0A11.51,11.51,0,0,0,15,39.7q0,16.52,0,33,0,43.07,0,86.13Z" transform="translate(-7.35 -20.56)"/></svg>