<svg id="Layer_1" data-name="Layer 1" xmlns="http://www.w3.org/2000/svg" viewBox="0 0 226.67 226.73"><defs><style>.cls-1{fill:#006316;}</style></defs><title>lms container icon 2</title><path class="cls-1" d="M150.91,1.79c4.41.36,9.3.49,14.1,1.23,4.51.69,8.94,2,13.39,3.06A79.58,79.58,0,0,1,193.94,12,98.64,98.64,0,0,1,216.6,27.15,93.31,93.31,0,0,1,236.06,51a121.91,121.91,0,0,1,7.62,16.19,105.83,105.83,0,0,1,3.78,13.67,82.52,82.52,0,0,1,2.25,22.29,104.78,104.78,0,0,1-2.17,18.37,99.93,99.93,0,0,1-5.43,17.74,90.51,90.51,0,0,1-13.24,22.55c-1,1.23-.84,1.89.25,3q20.83,20.73,41.59,41.58c1.63,1.63,3.35,3.19,4.82,5a10.46,10.46,0,0,1-3.46,16.19,10.3,10.3,0,0,1-12-2.1Q237,202.29,213.85,179.18c-.8-.8-1.28-.68-2.12-.13-5.17,3.41-10.22,7-15.62,10a80.67,80.67,0,0,1-13,5.5,102.75,102.75,0,0,1-14.58,4,87.3,87.3,0,0,1-23.61,1.34c-3.8-.34-7.62-.61-11.38-1.21a84.89,84.89,0,0,1-9.27-2.2,84.65,84.65,0,0,1-8.43-2.75c-3.57-1.41-7.11-2.92-10.53-4.64a96.51,96.51,0,0,1-30.43-24.23,83.17,83.17,0,0,1-12.48-19.05A157.28,157.28,0,0,1,56,130.11,95.68,95.68,0,0,1,53,116.84C51.91,110.45,51,104,51.46,97.51c.29-3.84.86-7.67,1.45-11.48.55-3.45,1.17-6.9,2-10.29A61,61,0,0,1,57.68,67a155.38,155.38,0,0,1,6.59-14.3A98.16,98.16,0,0,1,80.78,30.89,88.06,88.06,0,0,1,100,16a131.5,131.5,0,0,1,15.15-7.24,81.36,81.36,0,0,1,12.74-4.06c4.62-1.06,9.37-1.59,14.08-2.2C144.79,2.1,147.62,2,150.91,1.79ZM150.83,179c44.23,0,78-36.27,77.79-78a78,78,0,1,0-155.91.83C73.1,145.32,108.79,179.4,150.83,179Z" transform="translate(-51.33 -1.79)"/><path class="cls-1" d="M130,111.39c-2.62,0-5.24,0-7.86,0-3.42,0-5.72-1.92-7.6-4.44-3.83-5.14-1.54-12.64,3.6-14.92a17.82,17.82,0,0,1,6.23-1.57c4.75-.23,9.53-.07,14.3-.07,2.38,0,2.4,0,2.4-2.33,0-4.77,0-9.54,0-14.31a12,12,0,0,1,2.19-7.51c2.31-3.11,7-5,10.65-3.85,5.71,1.86,8,4.92,8.21,11.36.13,4.93.08,9.86,0,14.78,0,1.5.54,1.91,1.92,1.9,5.09,0,10.18-.14,15.26,0,4.35.13,8.05,1.79,10,6,2.29,4.88,1.29,9.17-2.91,12.92-2,1.81-4.49,2.19-7.07,2.19H164.36c-2,0-2.24.22-2.25,2.27,0,4.67.14,9.34,0,14a18.23,18.23,0,0,1-1.27,6.35c-1.2,2.81-3.55,4.43-6.59,5.43a8.86,8.86,0,0,1-6.38-.26c-3.09-1.27-5.82-3.48-6.26-7-.51-4-.4-8.14-.51-12.22-.06-2.2,0-4.4,0-6.6,0-1.37-.52-2-2-2-3,.06-6.08,0-9.12,0Z" transform="translate(-51.33 -1.79)"/></svg>