<svg id="Layer_1" data-name="Layer 1" xmlns="http://www.w3.org/2000/svg" viewBox="0 0 64.19 64.19"><defs><style>.cls-1{fill:#5c2e91;}.cls-2{fill:#6d429c;}</style></defs><title>net icon</title><path class="cls-1" d="M68,38.78v7.14c-.43.17-.26.56-.31.86a31.3,31.3,0,0,1-9,18.11,3.21,3.21,0,0,0-1.2-1.71L43.1,48.85A3,3,0,0,1,42,47.39c.9,0,1.81-.08,2.7,0s.93-.32.95-1-.15-1-.93-1c-1.9,0-3.8,0-5.7,0-.72,0-1-.16-1-.94.05-1.47,0-3,0-4.42,0-.74.2-1,1-1,1.56,0,3.13,0,4.7,0,.73,0,1-.18,1-.94s-.2-1.08-1-1c-1.52.07-3,0-4.56,0-.79,0-1.1-.19-1.06-1a37.93,37.93,0,0,0,0-4c-.06-.94.33-1.1,1.15-1.08,1.66.06,3.33,0,5,0,.86,0,1-.32,1-1.07s-.37-.9-1-.9c-2.33,0-4.66.07-7,0-1.05,0-1.38.21-1.37,1.31.06,3.66,0,7.31,0,11-.46-.41-.92-.83-1.39-1.22-1.07-.91-1.8-2.22-3.18-2.79,0-2.46-.08-4.93,0-7.39,0-.87-.39-.91-1-.88S28.9,29,28.93,30c.06,1.51,0,3,0,4.55-.43-.38-.87-.74-1.27-1.14Q21.32,27.1,15,20.8a3.22,3.22,0,0,0-1.72-1.19c4.65-4.56,10-7.69,16.59-8.63.7-.1,1.85.28,2.39-.73h6.85c.1.09.19.24.3.25A34.17,34.17,0,0,1,48.53,13a32.75,32.75,0,0,1,12.16,9.11,29.62,29.62,0,0,1,5.7,10.33C67.11,34.49,67.24,36.71,68,38.78Zm-13.36.58c0-2.33,0-4.65,0-7,0-1,.18-1.48,1.31-1.36s2.09,0,3.13,0c.75,0,1-.22,1-1s-.07-1-.9-1c-3.66.05-7.31,0-11,0-.75,0-1,.23-1,1s.19,1,1,1c1-.05,2,.07,3,0,1.13-.11,1.44.27,1.43,1.4-.07,4.61,0,9.21,0,13.81,0,.84.17,1.15,1.09,1.16s1.05-.42,1-1.2C54.58,43.92,54.61,41.64,54.61,39.36Z" transform="translate(-3.77 -10.25)"/><path class="cls-2" d="M31.19,37.35c1.38.57,2.11,1.88,3.18,2.79.47.39.93.81,1.39,1.22,0,1.61.11,3.22.06,4.83,0,1,.29,1.21,1.21,1.18,1.66-.06,3.32,0,5,0a3,3,0,0,0,1.09,1.46L57.41,63.18a3.21,3.21,0,0,1,1.2,1.71A31.09,31.09,0,0,1,43.1,73.63a22.17,22.17,0,0,0-4,.82H32.3c-.1-.29-.35-.25-.58-.29a32,32,0,0,1-27.21-25,10.91,10.91,0,0,0-.74-3.24V38.78c.53-.67.38-1.51.53-2.27a31.13,31.13,0,0,1,9-16.9A3.22,3.22,0,0,1,15,20.8q6.29,6.28,12.58,12.57c.4.4.84.76,1.27,1.14v8.55l-.66,0c-.3-.42-.62-.83-.9-1.27-2.56-4-5.13-8-7.64-12-.76-1.22-1.88-.71-2.82-.67s-.47,1-.48,1.49c0,5.13,0,10.26,0,15.4,0,.88.06,1.36,1.18,1.36s1-.6,1-1.34c0-4.42,0-8.84,0-13.26l.4,0c.89,1.34,1.79,2.67,2.66,4,2.13,3.3,4.27,6.59,6.36,9.91.73,1.15,1.8.66,2.69.6s.39-.92.4-1.41C31.18,43,31.18,40.19,31.19,37.35Zm5.9,19.73a2.88,2.88,0,0,0-2.92-3.15,2.94,2.94,0,0,0-3,3.11A2.87,2.87,0,0,0,34,60.27,3,3,0,0,0,37.09,57.08Zm8.26,3.17a5.46,5.46,0,0,0,1-.17c.33-.11.85-.22.72-.71-.19-.69-.6-.08-.88,0-1,.17-1.9.27-2.53-.71a1,1,0,0,1-.22-1.06c.2-.36.6-.19.9-.2.85,0,1.7,0,2.55,0,.44,0,.68-.1.72-.63A2.6,2.6,0,0,0,45.05,54a3.07,3.07,0,0,0-2.73,3.38A2.79,2.79,0,0,0,45.35,60.25ZM23.71,56.11a4,4,0,0,0,5.4,4c.38-.11,1-.16.83-.75s-.6-.09-.91-.07a2.7,2.7,0,0,0-.28,0c-1.39.19-2.66.08-3.5-1.25a4.13,4.13,0,0,1,.15-4.3,3.24,3.24,0,0,1,3.53-1.23c.34.06.87.61,1-.12s-.55-.66-1-.74A4.27,4.27,0,0,0,23.71,56.11Zm14.9,1c0,.75,0,1.51,0,2.26,0,.29-.13.7.4.75s.61-.29.61-.71c0-.94,0-1.89.05-2.83S40,55,41.05,55c.42,0,.81,0,.63-.57s-.58-.29-.94-.26-.53.66-1.05.49c-1.07-.36-1.07-.35-1.08.68C38.6,55.91,38.61,56.52,38.61,57.14Zm-26-10.88c-.09-.88-.52-1.44-1.42-1.47a1.4,1.4,0,0,0-.1,2.8C12,47.66,12.46,47.09,12.63,46.26Z" transform="translate(-3.77 -10.25)"/><path class="cls-1" d="M28.89,43.06c.06.27.17.73,0,.77-.45.07-.47-.44-.63-.74Z" transform="translate(-3.77 -10.25)"/><path class="cls-1" d="M18.61,32.79l.12-.49.28.46Z" transform="translate(-3.77 -10.25)"/><path class="cls-2" d="M36.05,57.15c0,1.49-.69,2.35-1.89,2.35a2.09,2.09,0,0,1-2-2.29,2.13,2.13,0,0,1,2-2.43C35.34,54.79,36.06,55.7,36.05,57.15Z" transform="translate(-3.77 -10.25)"/><path class="cls-2" d="M44.94,56.63c-.47-.28-1.37.36-1.36-.55,0-.76.72-1.21,1.49-1.26s1.43.38,1.41,1.1C46.44,57,45.45,56.36,44.94,56.63Z" transform="translate(-3.77 -10.25)"/></svg>