<svg id="Layer_1" data-name="Layer 1" xmlns="http://www.w3.org/2000/svg" viewBox="0 0 63.79 63.79"><title>nextjs icon</title><path d="M3.36,43.16v-4c.05-.38.1-.76.14-1.14a32.91,32.91,0,0,1,1.34-6.44A31.7,31.7,0,0,1,17.89,14.39,31,31,0,0,1,29.36,9.76a26.2,26.2,0,0,1,4.32-.48c.67,0,1.33,0,2,0,.92,0,1.85,0,2.76.09a29.42,29.42,0,0,1,6,1.2A31.76,31.76,0,0,1,62.83,25a30.72,30.72,0,0,1,4,10.93,26,26,0,0,1,.32,2.78c.06,1.17,0,2.35,0,3.52,0,.61,0,1.23-.05,1.83a28.7,28.7,0,0,1-.81,4.79,32,32,0,0,1-13.49,19,1.43,1.43,0,0,1-.21.12l-.19-.27L43.46,54.19q-8-12.12-16-24.25a1.23,1.23,0,0,0-1.08-.61H24.63a1.4,1.4,0,0,0-1.11.55.68.68,0,0,0-.16.48c0,1.86,0,3.73,0,5.6q0,7.38,0,14.76V51c0,1.31,0,2.61,0,3.92A1.16,1.16,0,0,0,24.43,56c.43,0,.87,0,1.31,0a3.77,3.77,0,0,0,.58,0,1,1,0,0,0,.84-.92c0-.31,0-.62.05-.93l.06-13.92c0-1.14,0-2.28,0-3.42a2.06,2.06,0,0,1,0-.28l.25.36q5,7.29,9.91,14.6c.92,1.35,1.79,2.73,2.75,4,3.33,4.52,6.69,9,10,13.53l.17.24a3.29,3.29,0,0,1-.39.23c-1,.45-1.91.93-2.88,1.33a32.7,32.7,0,0,1-8.7,2.14l-1,.11H33.13A.8.8,0,0,0,33,73l-2.25-.27a31.58,31.58,0,0,1-5.85-1.41A32,32,0,0,1,3.47,43.83C3.45,43.61,3.4,43.38,3.36,43.16ZM46.85,51.8l.07,0v-.31q0-3.33,0-6.66,0-6.08,0-12.14c0-1,0-2-.05-3.05a1.1,1.1,0,0,0-1.11-1.16c-.55,0-1.1,0-1.65,0A1.21,1.21,0,0,0,43,29.59c0,.68,0,1.37,0,2.05q0,7,0,14a.89.89,0,0,0,.16.52q1.79,2.72,3.55,5.45Z" transform="translate(-3.36 -9.27)"/></svg>