<svg id="Layer_1" data-name="Layer 1" xmlns="http://www.w3.org/2000/svg" viewBox="0 0 69.77 61.92"><defs><style>.cls-1{fill:#62d9fa;}</style></defs><title>react icon</title><path class="cls-1" d="M24.4,74.46H20.54c-4.25-1.75-5.49-5.29-5.63-9.49a27.57,27.57,0,0,1,.89-8.2c.35-1.3,0-1.74-1.26-2.12-4-1.21-7.8-2.83-10.75-5.93s-3-7.23,0-10.44A16.42,16.42,0,0,1,6,36.34a29.86,29.86,0,0,1,9.07-4.2c.78-.24,1-.48.8-1.33a33.24,33.24,0,0,1-1-8.78c.16-4.2,1.39-7.74,5.64-9.49H24.4c.81.29,1.65.55,2.45.89a28.28,28.28,0,0,1,8.59,5.87c.62.58,1.05.84,1.81.1a27,27,0,0,1,11.14-6.86h3.86c4.25,1.75,5.49,5.29,5.63,9.49a27.57,27.57,0,0,1-.89,8.2c-.35,1.31,0,1.74,1.26,2.12,4,1.23,7.9,2.85,10.84,6a6.91,6.91,0,0,1,1.62,7.76,10.39,10.39,0,0,1-3.57,4.25,29.56,29.56,0,0,1-9.44,4.46c-.78.24-1,.48-.8,1.33a33.24,33.24,0,0,1,1,8.78c-.16,4.2-1.39,7.74-5.64,9.49H48.1a30,30,0,0,1-11.08-7c-.54-.53-.9-.33-1.35.09A27.73,27.73,0,0,1,24.4,74.46ZM36.32,54.58c1.73,0,3.45,0,5.18,0a1.9,1.9,0,0,0,1.83-1,105.26,105.26,0,0,0,5.32-9.21,1.78,1.78,0,0,0,0-1.8,101.8,101.8,0,0,0-5.4-9.33,1.78,1.78,0,0,0-1.71-.88c-3.4,0-6.8,0-10.2,0a2.13,2.13,0,0,0-2,1.15c-1.86,2.91-3.59,5.88-5.17,9a1.92,1.92,0,0,0,0,1.94,105.19,105.19,0,0,0,5.33,9.2,1.88,1.88,0,0,0,1.83,1C33,54.55,34.65,54.58,36.32,54.58ZM17.87,23a42.53,42.53,0,0,0,.84,6.74c.21,1.11.65,1.36,1.7,1.15A39.49,39.49,0,0,1,25.8,30,4.77,4.77,0,0,0,30,27.54a26.41,26.41,0,0,1,2.48-3.13c1.81-2.17,1.83-2.19-.32-4a19.91,19.91,0,0,0-8.26-4.74c-2.63-.63-4.45.38-5.33,2.93A12.45,12.45,0,0,0,17.87,23Zm0,41a12.65,12.65,0,0,0,.72,4.65,4,4,0,0,0,5,2.84A11.4,11.4,0,0,0,26,70.64a28.07,28.07,0,0,0,7.62-5.29c.49-.44.62-.77.11-1.32a62.71,62.71,0,0,1-4.93-6.11,1.3,1.3,0,0,0-.94-.63,61.26,61.26,0,0,1-7.74-1.17c-.79-.17-1.16.09-1.33.91A41,41,0,0,0,17.87,63.92Zm37.05,0a44.17,44.17,0,0,0-.85-6.59c-.21-1.14-.69-1.31-1.71-1.12-2.33.42-4.67.79-7,1.09a1.91,1.91,0,0,0-1.46.81c-1.09,1.46-2.21,2.91-3.38,4.31-2,2.38-2,2.38.39,4.44a19.62,19.62,0,0,0,7.9,4.5c2.77.68,4.61-.35,5.51-3.06A13,13,0,0,0,54.92,63.88Zm0-40.71a12.86,12.86,0,0,0-.56-4.23c-.92-3-2.77-4-5.79-3.19-3.79,1-6.67,3.51-9.52,6-.54.48-.3.8.07,1.21A68,68,0,0,1,44,29a1.51,1.51,0,0,0,1.19.73,58.37,58.37,0,0,1,7.44,1.14c.85.19,1.26-.08,1.44-1A40.17,40.17,0,0,0,54.92,23.17ZM16.5,34.87l-.3.1a27.05,27.05,0,0,0-9,4.26C3.7,42,3.69,45,7.16,47.75a27.71,27.71,0,0,0,9,4.29c.69.22.89-.08,1-.61a73.3,73.3,0,0,1,2.84-7.29,1.4,1.4,0,0,0,0-1.26,73.36,73.36,0,0,1-2.85-7.29C17.11,35.25,17.06,34.77,16.5,34.87ZM68.24,44a5.83,5.83,0,0,0-2.54-4.66,27.87,27.87,0,0,0-9-4.31c-.75-.24-1,.06-1.15.65a66.52,66.52,0,0,1-2.78,7.15,1.59,1.59,0,0,0,0,1.41,70,70,0,0,1,2.84,7.29c.14.45.3.79.93.59C60,51,63.44,49.72,66.23,47.23A5.08,5.08,0,0,0,68.24,44ZM40.5,29.32c-1.34-1.6-2.44-2.92-3.56-4.22-.22-.26-.5-.62-.84-.24a26.06,26.06,0,0,0-3.59,4.46Zm-.19,28.4H32.5A36.16,36.16,0,0,0,35.9,62c.31.38.63.43,1,0A41.72,41.72,0,0,0,40.31,57.72ZM22,40l4-7a39.52,39.52,0,0,0-5.44.86c-.65.13-.61.47-.43,1C20.75,36.41,21.32,38,22,40Zm28.72,0c.71-1.91,1.32-3.59,2-5.28.14-.38.09-.66-.37-.76a38.46,38.46,0,0,0-5.56-.9ZM22,47.07c-.71,1.91-1.33,3.6-1.95,5.28-.14.38-.09.67.37.76A37.13,37.13,0,0,0,26,54ZM46.77,54a35.73,35.73,0,0,0,5.54-.87c.45-.09.54-.35.39-.75l-2-5.31Z" transform="translate(-1.51 -12.54)"/><path class="cls-1" d="M42.54,43.48a6.15,6.15,0,1,1-6.2-6.12A6,6,0,0,1,42.54,43.48Z" transform="translate(-1.51 -12.54)"/></svg>