<svg id="Layer_1" data-name="Layer 1" xmlns="http://www.w3.org/2000/svg" viewBox="0 0 162.52 130.72"><defs><style>.cls-1{fill:#b5b5b5;}</style></defs><title>search icon</title><path class="cls-1" d="M22.61,59.47C33,69.52,45.23,75,58.27,78.85a150,150,0,0,0,34.82,5.81,3.23,3.23,0,0,1,.63.16c1.17,7.69,4.44,11.37,10,11.3s8.78-3.62,9.82-11.22c25.82-2.28,50.85-6.87,71.24-25.11,0,.62.13,1.27.13,1.91q0,31.89,0,63.77c0,7-4.76,11.71-11.8,11.71H34.43c-7.07,0-11.82-4.68-11.82-11.69q0-32,0-64Z" transform="translate(-22.48 -6.47)"/><path class="cls-1" d="M61.09,27.1c0-2.33,0-4.4,0-6.47.12-7.76,5.94-14,13.69-14q28.86-.21,57.74,0c8.21.07,13.9,6.3,13.88,14.52v6h27.07A11.18,11.18,0,0,1,184.9,38.51c0,2.78-.16,5.58.07,8.35a8.42,8.42,0,0,1-2.4,6.45,51.08,51.08,0,0,1-14.91,11.92c-13.7,7.41-28.5,11.1-43.86,12.88-3.35.39-6.72.68-10.28,1-.08-.86-.09-1.53-.22-2.18-.35-1.88-1.31-3.08-3.41-3.06-3.48,0-7,0-10.44,0-4.75,0-5.07.28-5.75,5.23-4.94-.55-9.91-1-14.83-1.67a125.51,125.51,0,0,1-28.13-7.24c-9.1-3.62-17.64-8.11-24.45-15.37-2.4-2.56-4.2-5.19-3.74-9,.31-2.52,0-5.1.07-7.65A11,11,0,0,1,33.84,27.12C42.8,27.05,51.76,27.1,61.09,27.1ZM140.91,27c0-2.1,0-4,0-5.8,0-5.62-3.59-9.24-9.27-9.24-18.79,0-37.57-.09-56.35.09a10.58,10.58,0,0,0-6,2.46c-4.16,3.36-2.44,8.12-2.66,12.49Z" transform="translate(-22.48 -6.47)"/></svg>