<svg id="Layer_1" data-name="Layer 1" xmlns="http://www.w3.org/2000/svg" viewBox="0 0 346.8 215.59"><defs><style>.cls-1{fill:#006000;}</style></defs><title>task portal icon3</title><path class="cls-1" d="M339.57,124.86c5,0,9.42,0,13.86,0,7.21.08,11.17,3.89,11.17,11.07q.07,62.76,0,125.52c0,7.19-4,11.17-11.08,11.19q-30.48.09-61,0c-7.16,0-11-4-11.14-11.11-.05-3.1,0-6.19,0-9.77H53.28c-7.32,0-14.64-.09-22-.2-8.76-.13-13.41-4.89-13.46-13.75,0-5.8,0-11.6,0-18H29.7v-6.27q0-70.38,0-140.76c0-11.19,4.53-15.61,15.85-15.61H321.7c1.65,0,3.29,0,4.94,0,7.77.26,12.86,5.31,12.9,13.1.08,16.28,0,32.57,0,48.86Zm-7.39,0c.09-2.07.2-3.39.2-4.71q0-23.54,0-47.07c0-7.34-1.37-8.73-8.54-8.73l-278.39,0c-7,0-8.4,1.4-8.4,8.38q0,70.83-.1,141.66c0,4,.87,5.33,5.16,5.32q117-.19,234-.1h5.29v-5.87c0-25.71,0-51.41,0-77.11,0-4.54,1.11-8.45,5.36-10.48a16.81,16.81,0,0,1,6.93-1.26C306.34,124.8,319,124.86,332.18,124.86ZM357,244.59a22.74,22.74,0,0,0,.35-2.48q0-52.62.09-105.25c0-3.78-1.78-4.85-5.27-4.84-19.41.09-38.82.12-58.23,0-4.2,0-5.42,1.67-5.41,5.61q.15,51.06,0,102.13c0,4.06,1.26,5,5.1,4.93,18.21-.18,36.43-.08,54.64-.08Zm-75.82-17.4H25.08c0,3.14,0,5.95,0,8.77,0,7.18,1.14,8.31,8.32,8.31q121.45,0,242.92,0c1.58,0,3.16-.17,4.9-.28Zm7.48,24.91c0,3.51-.37,6.81.18,10,.23,1.31,2.39,3.26,3.69,3.27q30.4.31,60.83,0c1.32,0,3.58-1.64,3.74-2.76.5-3.42.18-7,.18-10.48Z" transform="translate(-17.84 -57.11)"/></svg>