<svg id="Layer_1" data-name="Layer 1" xmlns="http://www.w3.org/2000/svg" viewBox="0 0 382.48 315.47"><defs><style>.cls-1{fill:#fff;}.cls-1,.cls-2{stroke:#408e0e;stroke-miterlimit:10;stroke-width:9.87px;}.cls-2{fill:none;}.cls-3{fill:#408e0e;}</style></defs><title>user plus</title><path class="cls-1" d="M718.11,640.79H682.17c0-5.4.06-10.64,0-15.86-.62-43.36-27.8-81.76-69.63-102l.85-.28a15.06,15.06,0,0,1,7.36-.5c56.22,12,96.23,53.56,97.35,100.91C718.22,628.8,718.11,634.48,718.11,640.79Z" transform="translate(-340.61 -331.01)"/><path class="cls-2" d="M638.42,405.18c0,37-32.71,67-73,67a78.59,78.59,0,0,1-12-.95c29.92-10.09,49.9-36.43,49.87-65.42,0-30.84-21.74-57.08-51.82-66.3a78.71,78.71,0,0,1,14.26-1.27C605.88,338.34,638.43,368.33,638.42,405.18Z" transform="translate(-340.61 -331.01)"/><path class="cls-2" d="M682.17,640.79v.75H387.39c0-9-.79-17.89.12-26.69,5.14-49.15,44.6-89.45,100-102.77a15.39,15.39,0,0,1,9.41.56c25.11,9,50.3,9.16,75.38-.08a14.71,14.71,0,0,1,9-.53A149,149,0,0,1,612.53,523c41.83,20.2,69,58.6,69.63,102C682.23,630.15,682.17,635.39,682.17,640.79Z" transform="translate(-340.61 -331.01)"/><path class="cls-2" d="M603.32,405.77c0,29-20,55.33-49.87,65.42a84.58,84.58,0,0,1-28.65,4.33c-39.31-.71-73-32.4-72.92-69.88,0-38.49,34-69.67,75.81-69.7a81.24,81.24,0,0,1,23.81,3.53C581.58,348.69,603.28,374.93,603.32,405.77Z" transform="translate(-340.61 -331.01)"/><path class="cls-3" d="M395.22,483.54c0,10.29.08,19.88,0,29.47-.07,5.66-3.11,8.92-8,9S379,518.93,379,513.3c-.14-9.62,0-19.24,0-29.89H353.47c-1.32,0-2.65,0-4-.06-5.65-.21-8.94-3.18-8.89-8s3.49-7.89,9.11-8c7.93-.13,15.87,0,23.8-.05,1.5,0,3-.12,5.4-.23V444c0-2.27-.07-4.54,0-6.81.23-4.95,3.06-7.65,7.81-8.1,4.51-.43,8.24,3.09,8.36,8.07.22,8.5.07,17,.11,25.51,0,1.3.15,2.59.28,4.66h24.34c1.89,0,3.79-.12,5.66.05,4.83.43,7.66,3.17,8,8,.32,4.42-3.26,8-8.36,8.11-7.74.22-15.49.07-23.24.08Z" transform="translate(-340.61 -331.01)"/></svg>