<svg id="Layer_1" data-name="Layer 1" xmlns="http://www.w3.org/2000/svg" viewBox="0 0 343.52 312.25"><defs><style>.cls-1{fill:#008712;}</style></defs><title>project icon</title><path class="cls-1" d="M210.65,239.15c3.35,2.7,6.73,5.37,10.06,8.1q33.22,27.22,66.38,54.52a11.33,11.33,0,0,1,3.52,4.71c.92,2.76-1,5.41-4.07,6.68a9,9,0,0,1-9.28-1.4c-5.43-4.37-10.77-8.82-16.15-13.23l-67.86-55.66c-.6-.5-1.25-.94-2.2-1.65-5,4.17-9.92,8.28-14.87,12.34q-35.13,28.85-70.3,57.67c-3.93,3.23-8.62,3.5-12,.72s-2.87-6.61,1-9.85l.21-.16q36.59-30,73.17-60c1.15-.94,2.53-1.68,3.8-2.52l-.52-.85h-2.95c-29.29,0-58.58,0-87.87,0-34.89-.07-61.26-21.78-61.26-50.36q0-63.78,0-127.57c0-25.08,20.85-45.32,51-49.45a81.35,81.35,0,0,1,10.94-.64q110.13,0,220.26,0c29.16,0,53.36,15.51,59.73,38.35a43.66,43.66,0,0,1,1.54,11.51q.16,64,.06,128.05c0,28.27-26.44,50.05-60.94,50.13-29.2.07-58.39,0-87.59,0H211Zm-19.42-13.4q55.5,0,111,0c25.49,0,45.12-16.14,45.14-37q.06-64.14,0-128.27c0-20.8-19.35-37.07-44.69-37.11q-111.44-.2-222.85,0a49.75,49.75,0,0,0-23.33,5.42C42.64,36,35.21,46.46,35.16,60c-.14,42.52-.06,85-.06,127.56,0,22.43,19.25,38.21,46.58,38.21Z" transform="translate(-19.48 -1.61)"/><rect class="cls-1" x="154" width="35.52" height="17.76"/><polygon class="cls-1" points="232.55 122.91 146.49 73.23 146.49 172.6 232.55 122.91"/></svg>