<svg id="Layer_1" data-name="Layer 1" xmlns="http://www.w3.org/2000/svg" viewBox="0 0 69.48 69.48"><defs><style>.cls-1{fill:#028baf;}</style></defs><title>wordpress icon</title><path class="cls-1" d="M37.27,77.09H34.19c0-.09-.1,0-.14-.06-.47,0-.94-.06-1.41-.1a33.67,33.67,0,0,1-7-1.34A34.76,34.76,0,0,1,1.52,48.39,35.62,35.62,0,0,1,1,44c0-.06,0-.15-.06-.18V40.93c.1,0,.06-.1.06-.14,0-.39.05-.78.08-1.17a33.54,33.54,0,0,1,.73-4.89A34.72,34.72,0,0,1,20.79,11a34.31,34.31,0,0,1,9.75-3A33.51,33.51,0,0,1,34,7.67s.13,0,.15-.06h3.12c0,.1.1.06.14.06.7,0,1.39.09,2.08.17A34.72,34.72,0,0,1,66.83,27a34.28,34.28,0,0,1,3,8.81,33.49,33.49,0,0,1,.6,5c0,.06,0,.14,0,.18v2.88c-.09,0,0,.1,0,.15,0,.72-.1,1.44-.17,2.15a34.77,34.77,0,0,1-17.7,26.62A35,35,0,0,1,42,76.49a36.92,36.92,0,0,1-4.58.54C37.4,77,37.31,77,37.27,77.09ZM63,42.13A27.28,27.28,0,1,0,36.33,69.62,27.25,27.25,0,0,0,63,42.13Z" transform="translate(-0.97 -7.61)"/><path class="cls-1" d="M29.82,56.85c-.37-1.09-.73-2.17-1.09-3.26Q25,42.51,21.25,31.42c-.05-.15,0-.17.12-.18.85,0,1.69-.12,2.53-.22a1,1,0,0,0,.88-.73,1,1,0,0,0-.4-1.06,1,1,0,0,0-.66-.16c-2,.15-3.92.27-5.88.31-.57,0-1.14,0-1.71,0-.05,0-.12,0-.14,0s0-.09.06-.13A21.82,21.82,0,0,1,18,26.66,23.7,23.7,0,0,1,49.41,23a22.06,22.06,0,0,1,2.14,1.72.32.32,0,0,1,.1.14h-.31A4,4,0,0,0,47.56,28a5.09,5.09,0,0,0,.18,2.89,12,12,0,0,0,1.17,2.38,33.14,33.14,0,0,1,1.68,3,11.66,11.66,0,0,1,1.09,5.13,13.64,13.64,0,0,1-.55,3.3c-.51,1.93-1.14,3.81-1.71,5.72s-1.22,4.07-1.83,6.1a1.09,1.09,0,0,1-.05.17c-.07,0-.07-.12-.09-.18L40.13,34.69c-.37-1.08-.73-2.17-1.1-3.26-.05-.15,0-.18.13-.19.84,0,1.68-.12,2.51-.22a1,1,0,1,0-.18-1.95c-2.19.16-4.38.33-6.57.31-1.51,0-3-.1-4.51-.21L29,29.06a.94.94,0,0,0-1,.74,1,1,0,0,0,.45,1.13,1.34,1.34,0,0,0,.56.12c.71.08,1.42.15,2.13.18a.25.25,0,0,1,.26.2q1.77,4.88,3.56,9.76a.45.45,0,0,1,0,.36q-2.52,7.56-5.05,15.14C29.89,56.74,29.89,56.8,29.82,56.85Z" transform="translate(-0.97 -7.61)"/><path class="cls-1" d="M36.14,44.43l.76,2.08,6.45,17.68a2.68,2.68,0,0,0,.16.34c.06.11.06.16-.08.2a26,26,0,0,1-2.62.73,23.68,23.68,0,0,1-7.17.47,22.54,22.54,0,0,1-4.44-.82c-.14,0-.15-.1-.1-.22q1.54-4.52,3.1-9,1.94-5.61,3.85-11.21Z" transform="translate(-0.97 -7.61)"/><path class="cls-1" d="M25.32,63.64a23.67,23.67,0,0,1-11.76-13,23.38,23.38,0,0,1,.55-17.94L25.37,63.6Z" transform="translate(-0.97 -7.61)"/><path class="cls-1" d="M56.51,31.05a23.65,23.65,0,0,1-8.85,31.71c0-.07,0-.12,0-.18Q51.26,52.3,54.82,42c.26-.77.58-1.51.82-2.29a22.3,22.3,0,0,0,1-7.16c0-.45,0-.89-.08-1.33Z" transform="translate(-0.97 -7.61)"/></svg>